<?xml version="1.0" encoding="utf-8"?>
<!-- Generator: Adobe Illustrator 16.0.0, SVG Export Plug-In . SVG Version: 6.00 Build 0)  -->
<!DOCTYPE svg PUBLIC "-//W3C//DTD SVG 1.1//EN" "http://www.w3.org/Graphics/SVG/1.1/DTD/svg11.dtd">
<svg version="1.1" id="Layer_1" xmlns="http://www.w3.org/2000/svg" xmlns:xlink="http://www.w3.org/1999/xlink" x="0px" y="0px"
	 width="150px" height="150px" viewBox="0 0 150 150" enable-background="new 0 0 150 150" xml:space="preserve">
<g opacity="0.8">
	<g>
		<path fill="#626262" d="M21.449,61.316c-0.221-0.308-0.462-0.558-0.75-0.722c-0.289-0.192-0.625-0.337-0.934-0.385
			c-0.336-0.067-0.654-0.096-0.943-0.096c-0.336,0-0.645,0.029-1.01,0.115c-0.356,0.077-0.722,0.192-1.058,0.366
			c-0.337,0.164-0.674,0.404-0.962,0.703c-0.308,0.308-0.596,0.712-0.818,1.174L5.766,79.165c-0.048,0.114-0.077,0.26-0.077,0.403
			c0,0.191,0.048,0.386,0.221,0.49c0.145,0.135,0.308,0.184,0.5,0.184h1.905c0.192,0,0.385-0.067,0.548-0.184
			c0.144-0.104,0.289-0.25,0.365-0.414l3.146-6.495h7.649l0.77,6.398c0,0.163,0.077,0.317,0.173,0.435
			c0.115,0.174,0.336,0.26,0.529,0.26h1.876c0.211,0,0.452-0.067,0.596-0.24c0.173-0.145,0.241-0.375,0.241-0.598V79.26
			l-2.376-16.722C21.785,62.057,21.641,61.653,21.449,61.316z M13.703,70.457l3.964-7.149c0.173-0.308,0.529-0.356,0.77-0.337
			c0.481,0.029,0.529,0.337,0.529,0.337l0.847,7.149H13.703z M39.075,65.213c-0.529-0.529-1.154-0.933-1.896-1.222
			c-0.75-0.289-1.616-0.443-2.626-0.443c-2.28,0-4.186,0.625-5.629,1.905c-1.462,1.27-2.453,3.127-2.935,5.484l-0.404,2.001
			c-0.125,0.664-0.192,1.29-0.192,1.867c0,1.02,0.192,1.886,0.577,2.626c0.356,0.701,0.837,1.278,1.462,1.73s1.299,0.771,2.069,0.98
			c0.75,0.191,1.54,0.287,2.309,0.287h0.029c1.078,0,1.992-0.048,2.857-0.135c0.818-0.076,1.713-0.201,2.646-0.346
			c0.289-0.049,0.529-0.116,0.722-0.289c0.145-0.163,0.221-0.375,0.27-0.625l0.192-0.98v-0.021V77.88
			c0-0.144-0.077-0.336-0.221-0.433c-0.145-0.115-0.308-0.135-0.481-0.146h-0.193c-0.741,0.105-1.606,0.191-2.569,0.288
			c-0.962,0.077-1.905,0.125-2.819,0.125c-1.174,0-2.069-0.222-2.694-0.674c-0.596-0.434-0.914-1.087-0.914-2.117
			c0-0.269,0-0.529,0.048-0.837c0.029-0.25,0.077-0.539,0.192-0.847l0.029-0.145h10.218c0.289,0,0.558-0.077,0.722-0.289
			c0.144-0.164,0.221-0.365,0.269-0.577l0.241-1.222c0.115-0.635,0.192-1.231,0.192-1.79c0-0.789-0.125-1.51-0.366-2.213
			C39.97,66.319,39.556,65.713,39.075,65.213z M37.055,70.572h-7.649c0.125-0.577,0.317-1.078,0.577-1.578
			c0.27-0.51,0.606-0.972,1.01-1.395c0.414-0.395,0.866-0.702,1.395-0.914c0.529-0.221,1.106-0.317,1.761-0.317
			c2.165,0.029,3.031,0.847,3.079,2.761C37.228,69.572,37.18,70.053,37.055,70.572z M51.535,65.646l0.192-1.231l0.029-0.02v-0.144
			c0-0.192-0.096-0.414-0.269-0.548c-0.164-0.106-0.356-0.154-0.597-0.154h-0.048c-0.75,0-1.52,0.097-2.29,0.27
			c-0.625,0.145-1.251,0.433-1.924,0.847l0,0v-0.154c0-0.212-0.048-0.404-0.193-0.548c-0.144-0.145-0.356-0.212-0.548-0.212h-1.472
			c-0.24,0-0.452,0.087-0.673,0.241c-0.144,0.164-0.289,0.356-0.337,0.567l-2.79,14.779v0.146c0,0.191,0.048,0.404,0.221,0.55
			c0.145,0.144,0.337,0.211,0.529,0.211h1.54c0.26,0,0.452-0.086,0.645-0.24c0.192-0.146,0.337-0.337,0.385-0.549l2.261-12.007
			c0.722-0.404,1.376-0.673,1.953-0.837c0.625-0.173,1.366-0.241,2.232-0.241h0.097C50.987,66.396,51.439,66.127,51.535,65.646z
			 M64.168,65.184c-0.529-0.52-1.184-0.914-1.905-1.203c-0.77-0.279-1.655-0.433-2.646-0.433c-4.714-0.019-7.668,2.482-8.534,7.293
			l-0.414,2.194c-0.048,0.289-0.067,0.567-0.096,0.837c-0.048,0.26-0.048,0.529-0.048,0.818c0,0.837,0.145,1.617,0.385,2.309
			c0.27,0.702,0.654,1.317,1.155,1.828c0.529,0.51,1.154,0.914,1.876,1.202c0.77,0.27,1.636,0.404,2.598,0.404
			c1.25,0,2.386-0.164,3.367-0.5c0.962-0.356,1.828-0.838,2.531-1.474c0.693-0.626,1.27-1.396,1.703-2.28
			c0.461-0.915,0.77-1.906,0.991-3.032l0.404-2.194c0.048-0.289,0.077-0.548,0.125-0.837c0.019-0.289,0.019-0.558,0.019-0.847
			c0-0.818-0.096-1.587-0.356-2.28C65.054,66.291,64.668,65.675,64.168,65.184z M62.34,69.995c-0.029,0.269-0.048,0.539-0.125,0.847
			l-0.404,2.194c-0.125,0.712-0.317,1.318-0.606,1.895c-0.289,0.549-0.625,1.01-1.059,1.415c-0.385,0.414-0.866,0.723-1.395,0.943
			c-0.529,0.24-1.126,0.355-1.78,0.355c-1.203,0-1.972-0.262-2.424-0.692c-0.462-0.462-0.703-1.155-0.703-2.146
			c0-0.481,0.048-1.029,0.192-1.655l0.385-2.194c0.289-1.443,0.818-2.55,1.665-3.387c0.817-0.798,1.847-1.203,3.146-1.203
			c1.203,0,1.973,0.26,2.434,0.722c0.453,0.462,0.693,1.174,0.693,2.165C62.359,69.495,62.359,69.754,62.34,69.995z M73.184,59.469
			c0-0.193-0.048-0.366-0.192-0.539c-0.144-0.135-0.356-0.164-0.529-0.164h-1.635c-0.481-0.048-0.914,0.289-0.962,0.789
			l-3.752,19.782v0.146c0,0.191,0.048,0.403,0.192,0.55c0.145,0.144,0.337,0.211,0.529,0.211h1.636c0.221,0,0.481-0.097,0.625-0.261
			c0.173-0.146,0.289-0.316,0.336-0.528l3.752-19.82V59.469z M77.82,63.75h-1.49c-0.24,0-0.461,0.087-0.654,0.241
			c-0.192,0.164-0.327,0.356-0.385,0.567L72.51,79.337v0.146c0,0.191,0.048,0.422,0.221,0.566c0.145,0.145,0.356,0.192,0.548,0.192
			h1.511c0.241,0,0.462-0.087,0.654-0.24c0.193-0.146,0.308-0.337,0.385-0.549l2.79-14.788V64.51c0-0.212-0.077-0.404-0.25-0.548
			C78.234,63.818,78.014,63.75,77.82,63.75z M76.042,62.23h1.685c0.191,0,0.385-0.029,0.549-0.164
			c0.097-0.077,0.27-0.192,0.412-0.346l3.146-2.646c0.154-0.116,0.27-0.26,0.27-0.481c0-0.356-0.385-0.452-0.597-0.471H79.43
			c-0.213,0.019-0.404,0.048-0.578,0.164c-0.115,0.096-0.229,0.211-0.424,0.356l-2.654,2.598c-0.135,0.145-0.26,0.289-0.29,0.529
			C75.483,62.067,75.83,62.23,76.042,62.23z M93.148,64.944c-0.414-0.433-0.942-0.77-1.567-1.03
			c-0.626-0.221-1.376-0.366-2.263-0.366c-1.06,0-2.021,0.154-2.811,0.433c-0.635,0.202-1.23,0.462-1.826,0.75l0.02-0.067v-0.009
			V64.51c0-0.164-0.077-0.356-0.174-0.5c-0.135-0.173-0.385-0.26-0.596-0.26H82.41c-0.23,0-0.48,0.087-0.645,0.241
			c-0.164,0.164-0.317,0.356-0.356,0.567l-2.79,14.779v0.146c0,0.184,0.066,0.354,0.164,0.48c0.125,0.191,0.355,0.278,0.576,0.278
			H80.9c0.24,0,0.451-0.087,0.645-0.24c0.191-0.146,0.348-0.337,0.387-0.549l2.289-12.075c0.942-0.404,1.684-0.673,2.309-0.818
			c0.654-0.125,1.253-0.192,1.85-0.192c1.087-0.019,1.811,0.192,2.098,0.481c0.31,0.337,0.502,0.789,0.502,1.424
			c0,0.211-0.021,0.452-0.039,0.721c-0.028,0.279-0.06,0.549-0.125,0.837l-1.606,9.479v0.145c0,0.212,0.038,0.434,0.212,0.577
			c0.173,0.125,0.365,0.192,0.577,0.192h1.491c0.222,0,0.451-0.098,0.645-0.261c0.192-0.126,0.317-0.317,0.385-0.539l1.637-9.516
			c0.098-0.558,0.154-1.087,0.154-1.597c0-0.664-0.098-1.27-0.289-1.847C93.841,65.887,93.534,65.376,93.148,64.944z
			 M108.898,65.213c-0.51-0.529-1.125-0.914-1.856-1.222c-0.771-0.289-1.635-0.443-2.636-0.443c-2.271,0-4.195,0.625-5.639,1.905
			c-1.463,1.27-2.427,3.127-2.906,5.484l-0.403,2.001c-0.153,0.664-0.222,1.29-0.222,1.867c0,1.009,0.193,1.886,0.578,2.626
			c0.354,0.701,0.865,1.278,1.472,1.73c0.597,0.452,1.289,0.771,2.06,0.98c0.771,0.191,1.539,0.287,2.338,0.287
			c1.088,0,2.021-0.048,2.857-0.115c0.827-0.096,1.713-0.221,2.654-0.363c0.289-0.051,0.521-0.116,0.713-0.289
			c0.154-0.163,0.222-0.375,0.27-0.625l0.192-0.98v-0.021v-0.154c0-0.144-0.077-0.336-0.212-0.433
			c-0.153-0.115-0.317-0.137-0.48-0.146h-0.174c-0.77,0.106-1.615,0.192-2.598,0.289c-0.963,0.077-1.905,0.125-2.811,0.125
			c-1.154,0-2.078-0.222-2.693-0.674c-0.605-0.434-0.924-1.087-0.924-2.117c0-0.269,0-0.529,0.059-0.818
			c0.02-0.269,0.096-0.558,0.163-0.866l0.067-0.145h10.228c0.261,0,0.528-0.077,0.702-0.289c0.136-0.164,0.212-0.365,0.261-0.577
			l0.26-1.222c0.125-0.635,0.173-1.231,0.173-1.79c0-0.789-0.115-1.51-0.365-2.213C109.793,66.319,109.428,65.723,108.898,65.213z
			 M106.908,70.572h-7.68c0.146-0.577,0.338-1.078,0.598-1.578c0.289-0.51,0.605-0.972,1.02-1.395
			c0.404-0.395,0.866-0.702,1.387-0.914c0.539-0.221,1.115-0.317,1.762-0.317c2.165,0.029,3.05,0.847,3.079,2.761
			C107.07,69.572,107.023,70.053,106.908,70.572z M126.439,64.944c0-0.433-0.385-0.645-0.799-0.722
			c-0.8-0.192-1.664-0.337-2.627-0.481c-0.98-0.116-1.926-0.193-2.888-0.193s-1.896,0.125-2.79,0.347
			c-0.904,0.231-1.73,0.616-2.475,1.145c-0.771,0.529-1.413,1.25-1.952,2.117c-0.521,0.866-0.935,1.953-1.175,3.223l-0.559,2.867
			c-0.135,0.606-0.212,1.203-0.212,1.799c0,0.896,0.146,1.713,0.435,2.386c0.261,0.693,0.625,1.271,1.086,1.703
			c0.481,0.442,1.029,0.77,1.656,0.991c0.625,0.212,1.271,0.308,1.971,0.308h0.029c0.521,0,1.002-0.019,1.443-0.096
			c0.423-0.087,0.837-0.184,1.251-0.337c0.403-0.146,0.788-0.337,1.192-0.549c0.222-0.125,0.461-0.271,0.729-0.433l-0.058,0.238
			v0.021v0.201c0,0.184,0.058,0.354,0.152,0.5c0.137,0.213,0.387,0.261,0.615,0.261h1.252c0.221,0,0.461-0.097,0.635-0.24
			c0.164-0.146,0.31-0.337,0.326-0.549l2.694-14.21C126.439,65.146,126.439,65.049,126.439,64.944z M120.994,76.152
			c-0.838,0.511-1.561,0.896-2.215,1.154c-0.672,0.271-1.365,0.414-2.059,0.414c-0.675,0-1.25-0.191-1.73-0.598
			c-0.443-0.365-0.703-1.039-0.703-2.126c0-0.192,0.029-0.404,0.049-0.625c0.02-0.23,0.048-0.433,0.096-0.645l0.561-2.982
			c0.287-1.492,0.808-2.598,1.605-3.349c0.799-0.741,1.952-1.125,3.53-1.125c0.654,0,1.212,0.029,1.664,0.096
			c0.356,0.029,0.703,0.096,1.028,0.145L120.994,76.152z M139.014,63.934c-0.337-0.048-0.645-0.116-0.934-0.145
			c-0.288-0.067-0.635-0.096-0.962-0.135c-0.365-0.029-0.75-0.048-1.154-0.058c-0.442-0.048-0.962-0.048-1.598-0.048
			c-0.771,0-1.56,0.077-2.349,0.202c-0.826,0.145-1.539,0.404-2.175,0.76c-0.646,0.366-1.153,0.866-1.559,1.472
			c-0.435,0.625-0.626,1.395-0.626,2.328c0,1.396,0.963,2.646,2.74,3.733l2.84,1.703c0.74,0.414,1.201,0.77,1.377,1.02
			c0.229,0.279,0.308,0.52,0.326,0.789c-0.021,0.435-0.098,0.75-0.26,1.029c-0.164,0.27-0.414,0.48-0.675,0.637
			c-0.317,0.162-0.646,0.307-1.028,0.375c-0.414,0.076-0.828,0.125-1.279,0.125c-0.262,0-0.604,0-1.012-0.029
			c-0.385-0.02-0.816-0.039-1.271-0.066c-0.442-0.027-0.896-0.066-1.31-0.098c-0.451-0.047-0.836-0.096-1.221-0.125h-0.224
			c-0.386-0.02-0.81,0.25-0.865,0.654l-0.19,1.029v0.029v0.115c0,0.221,0.076,0.44,0.287,0.558c0.125,0.097,0.289,0.164,0.441,0.212
			c0.387,0.077,0.789,0.154,1.193,0.191c0.462,0.059,0.895,0.125,1.348,0.146c0.441,0.028,0.848,0.048,1.279,0.077
			c0.414,0.02,0.799,0.02,1.126,0.02h0.026c0.867,0,1.703-0.066,2.53-0.24c0.839-0.164,1.578-0.451,2.231-0.855
			c0.654-0.396,1.175-0.924,1.589-1.566c0.385-0.692,0.606-1.521,0.606-2.482c0-0.692-0.224-1.347-0.638-1.943
			c-0.401-0.606-1.174-1.251-2.251-1.924l-2.818-1.684c-0.529-0.337-0.935-0.625-1.223-0.895c-0.25-0.26-0.348-0.481-0.348-0.789
			c0-0.365,0.076-0.625,0.25-0.837c0.164-0.221,0.404-0.395,0.693-0.539c0.287-0.135,0.596-0.241,0.98-0.279
			c0.365-0.058,0.73-0.096,1.059-0.096c0.865,0,1.713,0.019,2.53,0.067c0.817,0.048,1.491,0.096,2.021,0.164h0.125
			c0.424,0.029,0.865-0.289,0.904-0.722l0.174-0.962v-0.02v-0.144C139.736,64.299,139.398,63.981,139.014,63.934z"/>
		<path fill="#A9A9A9" d="M43.549,86.188c-0.693-0.172-1.54-0.315-2.55-0.461c-1.01-0.146-1.972-0.213-2.906-0.213
			c-1.183,0-2.242,0.116-3.175,0.366c-0.943,0.261-1.761,0.664-2.454,1.251c-0.703,0.567-1.28,1.317-1.761,2.23
			c-0.452,0.914-0.818,2.021-1.078,3.34l-0.385,2.117c-0.145,0.701-0.192,1.347-0.192,1.973c0,0.913,0.115,1.712,0.433,2.386
			c0.308,0.675,0.722,1.222,1.251,1.664c0.529,0.425,1.174,0.761,1.896,0.953c0.722,0.192,1.52,0.298,2.357,0.298
			c0.24,0,0.51-0.01,0.847-0.027c0.308-0.049,0.645-0.078,0.981-0.098c0.365-0.048,0.673-0.096,0.991-0.145
			c0.212-0.028,0.385-0.049,0.548-0.096v0.145c-0.144,0.645-0.289,1.184-0.481,1.605c-0.164,0.434-0.404,0.771-0.722,1.039
			c-0.336,0.239-0.722,0.434-1.174,0.528c-0.481,0.115-1.058,0.173-1.732,0.173c-0.414,0-0.895-0.01-1.347-0.048
			c-0.51-0.01-0.991-0.06-1.472-0.077c-0.481-0.027-0.934-0.066-1.347-0.096c-0.433-0.049-0.77-0.077-1.029-0.116H29h-0.077
			c-0.163,0-0.336,0.039-0.481,0.136c-0.164,0.076-0.24,0.252-0.308,0.435l-0.173,0.847l0,0v0.028l0,0
			c-0.019,0.067,0,0.097-0.019,0.135c0.019,0.317,0.289,0.511,0.645,0.606c0.433,0.115,1.106,0.24,2.049,0.354
			c0.933,0.126,1.992,0.176,3.194,0.176c1.135,0,2.117-0.099,2.983-0.271c0.817-0.164,1.568-0.481,2.165-0.936
			c0.625-0.451,1.135-1.039,1.521-1.809c0.404-0.76,0.692-1.703,0.885-2.838l2.838-14.76v-0.01c0-0.021,0-0.039,0-0.039
			c0-0.06,0.029-0.105,0.029-0.154C44.251,86.448,43.963,86.236,43.549,86.188z M38.864,99.37c-0.222,0.048-0.481,0.097-0.75,0.114
			c-0.337,0.049-0.645,0.098-0.962,0.125c-0.336,0.021-0.625,0.021-0.933,0.05c-0.289,0.019-0.558,0.019-0.799,0.019
			c-1.154,0-2.021-0.211-2.549-0.597c-0.5-0.403-0.789-1.106-0.789-2.185c0-0.289,0.019-0.605,0.048-0.942
			c0.02-0.337,0.096-0.702,0.164-1.087l0.385-2.107c0.337-1.693,0.914-2.896,1.713-3.664c0.789-0.771,1.896-1.156,3.319-1.156
			c0.645,0,1.27,0.029,1.896,0.099c0.529,0.048,0.991,0.125,1.347,0.19L38.864,99.37z M91.744,82.561v-0.125
			c0-0.365-0.26-0.604-0.616-0.604h-1.597c-0.213-0.021-0.404,0.077-0.577,0.19c-0.164,0.146-0.289,0.289-0.308,0.481l-0.174,1.279
			v0.114c0,0.386,0.27,0.605,0.652,0.605h1.588c0.223,0,0.387-0.077,0.548-0.212c0.175-0.104,0.289-0.288,0.349-0.479 M29.31,88.016
			c0.481,0.021,0.847-0.19,0.914-0.604l0.221-1.224l0,0v-0.125c0-0.354-0.317-0.549-0.703-0.549h-0.067
			c-0.75,0-1.491,0.077-2.261,0.26c-0.674,0.154-1.395,0.481-2.165,1.013l0.067-0.337l0,0v-0.137c0-0.363-0.24-0.604-0.597-0.604
			h-1.472c-0.193,0-0.385,0.065-0.549,0.224c-0.144,0.113-0.269,0.277-0.317,0.471l-2.79,14.75v0.145
			c0,0.355,0.269,0.598,0.625,0.598h1.52c0.211,0,0.404-0.066,0.548-0.191c0.192-0.146,0.289-0.288,0.366-0.48l2.261-12.074
			c0.721-0.403,1.414-0.692,2.021-0.865c0.645-0.163,1.414-0.26,2.309-0.26h0.069V88.016z M81.833,88.141h3.252
			c0.212,0,0.386-0.076,0.56-0.221c0.133-0.126,0.26-0.27,0.309-0.462l0.191-1.011l0,0v-0.135c0-0.365-0.271-0.606-0.653-0.606
			h-3.194l0.434-2.424v-0.106c0-0.308-0.222-0.529-0.51-0.529h-0.097l-1.675,0.224c-0.442,0.048-0.75,0.308-0.801,0.69l-0.385,2.146
			l-2.068,0.066c-0.19-0.02-0.385,0.05-0.557,0.175c-0.117,0.114-0.23,0.26-0.289,0.452l-0.136,0.779l0,0v0.113
			c-0.028,0.337,0.261,0.561,0.616,0.577l1.98,0.239l-1.887,9.938c-0.038,0.241-0.096,0.452-0.096,0.597
			c-0.021,0.174-0.039,0.365-0.039,0.56c0,1.028,0.385,1.817,1.154,2.252c0.713,0.435,1.637,0.635,2.693,0.635
			c0.309,0,0.646-0.01,0.98-0.026c0.365-0.029,0.693-0.078,1.039-0.099c0.229-0.048,0.404-0.125,0.52-0.239
			c0.098-0.098,0.192-0.223,0.223-0.365l0.191-1.06l0,0v-0.135c0.029-0.174-0.029-0.337-0.222-0.385
			c-0.097-0.029-0.192-0.06-0.354-0.06h-1.896c-0.479,0-0.849-0.049-1.021-0.135c-0.164-0.059-0.261-0.222-0.261-0.636
			c0-0.192,0.028-0.479,0.065-0.817L81.833,88.141z M122.658,86.766c0-0.338-0.26-0.529-0.645-0.578
			c-0.828-0.222-1.693-0.363-2.656-0.51c-0.963-0.115-1.924-0.164-2.857-0.164s-1.876,0.098-2.742,0.318
			c-0.885,0.23-1.712,0.596-2.424,1.145c-0.751,0.51-1.404,1.203-1.904,2.051c-0.529,0.848-0.943,1.925-1.175,3.193l-0.56,2.848
			c-0.145,0.615-0.191,1.193-0.191,1.771c0,0.895,0.116,1.684,0.385,2.357c0.289,0.654,0.654,1.201,1.078,1.636
			c0.463,0.413,1.02,0.75,1.616,0.962c0.597,0.191,1.251,0.298,1.942,0.298c0.512,0,0.963-0.028,1.426-0.104
			c0.402-0.067,0.816-0.164,1.23-0.31c0.385-0.164,0.771-0.337,1.153-0.559c0.31-0.163,0.646-0.355,1.001-0.598l-0.098,0.578v0.065
			v0.125c0,0.146,0.029,0.31,0.098,0.414c0.125,0.135,0.288,0.185,0.512,0.185h1.25c0.191,0,0.385-0.067,0.549-0.192
			c0.152-0.146,0.27-0.308,0.289-0.48l2.691-14.211C122.658,86.958,122.658,86.861,122.658,86.766z M117.491,98.042
			c-0.847,0.528-1.597,0.924-2.271,1.203c-0.714,0.288-1.388,0.433-2.117,0.433c-0.713,0-1.317-0.211-1.828-0.645
			c-0.48-0.385-0.74-1.126-0.74-2.213c0-0.223,0.027-0.434,0.027-0.654c0.021-0.24,0.039-0.452,0.098-0.645l0.549-2.982
			c0.316-1.521,0.837-2.665,1.684-3.443c0.817-0.771,2.021-1.156,3.607-1.156c0.646,0,1.223,0.029,1.686,0.078l0.02-0.146v0.146
			c0.385,0.047,0.771,0.114,1.154,0.172L117.491,98.042z M135.964,86.496c0.021-0.336-0.25-0.566-0.577-0.615
			c-0.347-0.048-0.654-0.105-0.943-0.154c-0.307-0.047-0.625-0.086-0.979-0.115c-0.346-0.027-0.729-0.065-1.135-0.075
			c-0.462-0.021-0.942-0.021-1.56-0.021c-0.771,0-1.567,0.066-2.367,0.191c-0.771,0.145-1.48,0.386-2.116,0.741
			c-0.597,0.347-1.099,0.827-1.479,1.405c-0.414,0.613-0.606,1.364-0.606,2.25c0,1.348,0.913,2.561,2.646,3.619l2.867,1.721
			c0.712,0.414,1.193,0.771,1.414,1.039c0.24,0.31,0.337,0.598,0.337,0.887c0,0.433-0.097,0.798-0.271,1.066
			c-0.191,0.31-0.422,0.549-0.739,0.713c-0.317,0.19-0.646,0.316-1.088,0.395c-0.404,0.087-0.837,0.135-1.289,0.135
			c-0.25,0-0.606-0.019-0.991-0.048c-0.414,0-0.837-0.021-1.279-0.048c-0.451-0.039-0.904-0.066-1.317-0.115
			c-0.451-0.049-0.837-0.076-1.222-0.115h-0.191c-0.387-0.011-0.676,0.191-0.751,0.549l-0.192,1.029l0,0v0.104
			c0,0.184,0.077,0.356,0.213,0.452c0.125,0.066,0.27,0.125,0.441,0.193c0.355,0.047,0.74,0.125,1.174,0.19
			c0.434,0.048,0.866,0.096,1.299,0.125c0.436,0.021,0.866,0.065,1.28,0.086c0.423,0,0.81,0.01,1.153,0.01
			c0.837,0,1.675-0.075,2.521-0.25c0.817-0.145,1.54-0.433,2.165-0.815c0.646-0.385,1.154-0.914,1.539-1.541
			c0.386-0.625,0.578-1.442,0.578-2.396c0-0.652-0.224-1.277-0.604-1.855c-0.387-0.605-1.127-1.224-2.215-1.877l-2.81-1.703
			c-0.56-0.336-0.963-0.635-1.231-0.913c-0.287-0.271-0.402-0.538-0.402-0.865c0-0.396,0.096-0.703,0.287-0.942
			c0.192-0.24,0.435-0.434,0.752-0.578c0.289-0.145,0.615-0.26,1-0.308c0.386-0.058,0.75-0.077,1.088-0.077
			c0.865,0,1.703,0.021,2.529,0.067c0.81,0.048,1.48,0.104,2.041,0.153h0.113c0.387,0.02,0.702-0.223,0.771-0.605l0.152-0.943
			l-0.152-0.037h0.152v-0.106L135.964,86.496L135.964,86.496z M105.58,86.861c-0.404-0.435-0.914-0.771-1.521-1.01
			c-0.615-0.24-1.347-0.338-2.184-0.338c-1.088,0-2.021,0.127-2.791,0.413c-0.702,0.231-1.375,0.521-2.049,0.856l0.058-0.338v-0.135
			c0-0.146-0.058-0.289-0.153-0.396c-0.097-0.146-0.289-0.212-0.479-0.212h-1.511c-0.223,0-0.414,0.066-0.551,0.212
			c-0.151,0.125-0.25,0.299-0.315,0.481l-2.79,14.75v0.144c0,0.146,0.066,0.289,0.146,0.403c0.113,0.146,0.27,0.192,0.479,0.192
			h1.54c0.19,0,0.385-0.067,0.56-0.192c0.135-0.135,0.26-0.287,0.325-0.479l2.29-12.144c0.98-0.413,1.751-0.701,2.405-0.846
			c0.653-0.146,1.271-0.213,1.848-0.213c1.154,0,1.888,0.213,2.241,0.549c0.355,0.347,0.527,0.828,0.549,1.502
			c0,0.229-0.021,0.479-0.037,0.76c-0.059,0.289-0.076,0.558-0.125,0.816l-1.828,9.508v0.144c0,0.356,0.289,0.597,0.646,0.597h1.521
			c0.191,0,0.385-0.066,0.56-0.191c0.135-0.135,0.286-0.287,0.325-0.479l1.811-9.524c0.115-0.549,0.146-1.077,0.146-1.588
			c0-0.625-0.067-1.223-0.26-1.779C106.253,87.756,105.945,87.266,105.58,86.861z M73.809,86.861
			c-0.404-0.435-0.914-0.771-1.511-1.01c-0.625-0.24-1.347-0.338-2.193-0.338c-1.059,0-1.992,0.127-2.791,0.413
			c-0.693,0.231-1.366,0.521-2.04,0.856l0.048-0.338v-0.135c0-0.152-0.048-0.289-0.144-0.396c-0.096-0.146-0.27-0.212-0.481-0.212
			h-1.52c-0.192,0-0.385,0.066-0.548,0.212c-0.145,0.125-0.27,0.289-0.317,0.481l-2.762,14.75v0.144
			c0,0.146,0.048,0.289,0.116,0.403c0.125,0.146,0.289,0.192,0.462,0.192h1.559c0.192,0,0.385-0.067,0.558-0.192
			c0.164-0.146,0.26-0.308,0.336-0.479l2.28-12.144c0.962-0.434,1.78-0.701,2.406-0.846c0.654-0.146,1.279-0.213,1.876-0.213
			c1.135,0,1.857,0.213,2.213,0.549c0.366,0.347,0.529,0.828,0.529,1.502c0,0.229-0.019,0.479-0.048,0.76
			c-0.02,0.289-0.048,0.558-0.097,0.816l-1.799,9.508v0.144c0,0.356,0.26,0.597,0.625,0.597h1.492c0.211,0,0.404-0.066,0.577-0.191
			c0.164-0.135,0.26-0.287,0.337-0.479l1.799-9.524c0.096-0.549,0.134-1.077,0.134-1.588c0-0.625-0.067-1.223-0.26-1.779
			C74.454,87.756,74.165,87.266,73.809,86.861z M57.722,87.102c-0.481-0.5-1.106-0.885-1.828-1.152
			c-0.721-0.309-1.568-0.436-2.578-0.436c-2.261,0-4.089,0.606-5.533,1.857c-1.444,1.251-2.405,3.068-2.886,5.388l-0.385,2.021
			c-0.144,0.646-0.192,1.271-0.192,1.828c0,1.002,0.173,1.85,0.529,2.552c0.366,0.692,0.847,1.271,1.443,1.702
			c0.577,0.451,1.251,0.75,2.021,0.943c0.75,0.191,1.491,0.287,2.261,0.287h0.029c1.078,0,1.992-0.027,2.838-0.125
			c0.837-0.076,1.703-0.191,2.646-0.355c0.289-0.049,0.481-0.104,0.645-0.25c0.096-0.135,0.173-0.309,0.221-0.527l0.192-0.98
			l0.019-0.021v-0.125c0-0.289-0.26-0.435-0.577-0.435h-0.164c-0.75,0.098-1.616,0.192-2.579,0.271
			c-0.981,0.087-1.924,0.136-2.838,0.136c-1.174,0-2.117-0.24-2.761-0.713c-0.654-0.441-0.991-1.184-0.991-2.24
			c0-0.271,0-0.529,0.048-0.817c0.029-0.289,0.096-0.577,0.192-0.896l0.077-0.24h10.314c0.27,0,0.481-0.086,0.625-0.24
			c0.096-0.135,0.173-0.309,0.221-0.52l0.241-1.231c0.145-0.606,0.192-1.203,0.192-1.761c0.02-0.762-0.125-1.463-0.337-2.155
			C58.588,88.189,58.222,87.602,57.722,87.102z M55.961,92.49v0.049h-7.986c0.145-0.654,0.366-1.251,0.625-1.8
			c0.289-0.538,0.654-1.021,1.059-1.443c0.414-0.396,0.895-0.729,1.424-0.942c0.548-0.222,1.155-0.336,1.828-0.336
			c2.213,0.021,3.194,0.935,3.223,2.936C56.134,91.402,56.086,91.932,55.961,92.49z M90.262,86.141h-1.5
			c-0.193,0-0.386,0.076-0.578,0.191c-0.135,0.145-0.26,0.309-0.326,0.48l-2.655,14.336v0.145c0,0.355,0.271,0.598,0.636,0.598h1.48
			c0.222,0,0.414-0.066,0.576-0.191c0.174-0.146,0.271-0.288,0.317-0.48l2.665-14.337v-0.134
			C90.877,86.38,90.618,86.141,90.262,86.141z M15.502,82.984c-0.192-0.31-0.452-0.567-0.741-0.74
			c-0.289-0.192-0.606-0.318-0.943-0.387c-0.337-0.047-0.645-0.075-0.962-0.075c-0.308,0-0.625,0.028-0.981,0.096
			c-0.365,0.077-0.722,0.202-1.058,0.386c-0.366,0.153-0.674,0.413-0.991,0.702c-0.289,0.308-0.548,0.692-0.818,1.154l-9.188,16.692
			c-0.048,0.125-0.096,0.261-0.096,0.414c0,0.184,0.077,0.385,0.221,0.5c0.145,0.114,0.337,0.164,0.5,0.164h1.924
			c0.192,0,0.385-0.067,0.558-0.164c0.144-0.115,0.289-0.261,0.356-0.414l3.175-6.494h7.649l0.722,6.397
			c0.048,0.146,0.096,0.3,0.192,0.435c0.125,0.173,0.337,0.24,0.529,0.24h1.876c0.241,0,0.462-0.05,0.625-0.211
			c0.144-0.176,0.192-0.388,0.192-0.628v-0.125l-2.357-16.739C15.839,83.706,15.695,83.32,15.502,82.984z M7.757,92.125l3.974-7.168
			c0.144-0.289,0.548-0.337,0.77-0.327c0.481,0.021,0.529,0.327,0.529,0.327l0.837,7.168H7.757z"/>
	</g>
	<path fill="#626262" d="M126.381,51.57c-6.195,1.068-14.402,1.79-20.706,3.704c4.927-0.048,9.959-0.067,15.106-0.067
		c3.06,0,6.062,0,9.044,0.029c2.579,0,5.1,0.02,7.485,0.067c4.231,0.029,8.371,0.096,12.412,0.192
		c-0.25-1.472-1.349-3.175-4.813-3.175l-2.002-0.029V52.3c0.559,1.318-0.817,2.165-2.021,1.511
		c-0.625-0.317-0.963-0.981-0.076-1.655c0.896-0.683,2.365-1.693,3.106-2.126c2.474-1.482,2.377-3.983-1.185-4.253
		c-8.485-0.702-23.783-1.635-29.346-2.117c3.879,2.502,9.334,3.175,14.336,4.888C130.961,49.655,129.296,51.069,126.381,51.57z"/>
</g>
</svg>
