<?xml version="1.0" encoding="utf-8"?>
<!-- Generator: Adobe Illustrator 16.0.0, SVG Export Plug-In . SVG Version: 6.00 Build 0)  -->
<!DOCTYPE svg PUBLIC "-//W3C//DTD SVG 1.1//EN" "http://www.w3.org/Graphics/SVG/1.1/DTD/svg11.dtd">
<svg version="1.1" id="Capa_1" xmlns="http://www.w3.org/2000/svg" xmlns:xlink="http://www.w3.org/1999/xlink" x="0px" y="0px"
	 width="23px" height="13.785px" viewBox="68.5 44.365 23 13.785" enable-background="new 68.5 44.365 23 13.785"
	 xml:space="preserve">
<g>
	<path fill="#2196F3" d="M75.122,44.498c0.649,0,1.232,0.055,1.767,0.17c0.529,0.111,0.982,0.299,1.366,0.558
		c0.376,0.258,0.672,0.6,0.881,1.034c0.208,0.422,0.311,0.957,0.311,1.587c0,0.681-0.153,1.25-0.461,1.704
		c-0.312,0.455-0.772,0.826-1.384,1.116c0.835,0.24,1.45,0.663,1.858,1.261c0.413,0.605,0.613,1.324,0.613,2.176
		c0,0.684-0.132,1.271-0.393,1.77c-0.266,0.506-0.627,0.914-1.071,1.225c-0.449,0.318-0.963,0.555-1.539,0.705
		c-0.571,0.15-1.163,0.227-1.77,0.227h-6.559V44.498H75.122z M74.737,49.965c0.529,0,0.964-0.126,1.312-0.38
		c0.342-0.25,0.509-0.663,0.509-1.229c0-0.316-0.055-0.578-0.167-0.778c-0.114-0.201-0.267-0.359-0.458-0.47
		c-0.192-0.115-0.407-0.195-0.657-0.239c-0.245-0.048-0.503-0.066-0.768-0.066h-2.786v3.163L74.737,49.965L74.737,49.965z
		 M74.902,55.723c0.293,0,0.571-0.025,0.835-0.086c0.266-0.055,0.502-0.15,0.702-0.283c0.199-0.131,0.365-0.314,0.483-0.539
		c0.12-0.232,0.179-0.523,0.179-0.879c0-0.699-0.197-1.193-0.587-1.494C76.124,52.147,75.602,52,74.96,52h-3.238v3.723H74.902z"/>
	<path fill="#2196F3" d="M84.322,55.543c0.401,0.396,0.984,0.597,1.739,0.597c0.542,0,1.012-0.141,1.405-0.412
		c0.39-0.271,0.627-0.567,0.719-0.871h2.37c-0.38,1.18-0.958,2.022-1.747,2.533c-0.78,0.506-1.73,0.76-2.838,0.76
		c-0.771,0-1.465-0.123-2.088-0.372c-0.623-0.248-1.146-0.6-1.583-1.053c-0.426-0.454-0.758-0.997-0.994-1.633
		c-0.236-0.631-0.354-1.332-0.354-2.084c0-0.733,0.124-1.421,0.364-2.055c0.244-0.635,0.581-1.183,1.024-1.642
		c0.447-0.461,0.975-0.825,1.588-1.09c0.615-0.267,1.294-0.401,2.044-0.401c0.83,0,1.555,0.16,2.177,0.486
		c0.621,0.32,1.129,0.755,1.527,1.298c0.4,0.542,0.684,1.165,0.862,1.86c0.176,0.694,0.238,1.419,0.187,2.181h-7.07
		C83.655,54.42,83.916,55.155,84.322,55.543z M87.414,50.398c-0.32-0.354-0.862-0.545-1.522-0.545c-0.43,0-0.786,0.071-1.072,0.218
		c-0.278,0.148-0.506,0.329-0.679,0.541c-0.174,0.218-0.293,0.447-0.363,0.691c-0.067,0.239-0.108,0.456-0.12,0.646h4.377
		C87.969,51.263,87.734,50.755,87.414,50.398z"/>
	<rect x="83.104" y="45.27" fill="#2196F3" width="5.485" height="1.336"/>
</g>
</svg>
