<?xml version="1.0" encoding="utf-8"?>
<!-- Generator: Adobe Illustrator 16.0.0, SVG Export Plug-In . SVG Version: 6.00 Build 0)  -->
<!DOCTYPE svg PUBLIC "-//W3C//DTD SVG 1.1//EN" "http://www.w3.org/Graphics/SVG/1.1/DTD/svg11.dtd">
<svg version="1.1" id="Capa_1" xmlns="http://www.w3.org/2000/svg" xmlns:xlink="http://www.w3.org/1999/xlink" x="0px" y="0px"
	 width="150px" height="150px" viewBox="345.945 222.64 150 150" enable-background="new 345.945 222.64 150 150"
	 xml:space="preserve">
<path fill="#2196F3" d="M345.945,357.013v-93.748h150v93.748H345.945z M489.696,350.767v-81.251h-137.5v81.251H489.696z
	 M358.444,250.766h125v6.25h-125V250.766z M370.945,238.266h100v6.249h-100V238.266z M404.229,332.041l-20.785-21.902l20.785-21.9
	l4.266,4.396l-16.519,17.504l0,0l16.519,17.508L404.229,332.041z M437.661,288.241l20.783,21.897l-20.783,21.906l-4.266-4.398
	l16.518-17.508l0,0l-16.518-17.504L437.661,288.241z"/>
</svg>
