<?xml version="1.0" encoding="utf-8"?>
<!-- Generator: Adobe Illustrator 16.0.0, SVG Export Plug-In . SVG Version: 6.00 Build 0)  -->
<!DOCTYPE svg PUBLIC "-//W3C//DTD SVG 1.1//EN" "http://www.w3.org/Graphics/SVG/1.1/DTD/svg11.dtd">
<svg version="1.1" id="Capa_1" xmlns="http://www.w3.org/2000/svg" xmlns:xlink="http://www.w3.org/1999/xlink" x="0px" y="0px"
	 width="150px" height="150px" viewBox="345.945 222.64 150 150" enable-background="new 345.945 222.64 150 150"
	 xml:space="preserve">
<g>
	<path fill="#2196F3" d="M483.333,260.141h-31.022v-25l-18.75-12.5h-25.004l-18.752,12.5v25H358.33l0.229,100.004
		c0,6.902,5.594,12.495,12.498,12.495h100.004c6.902,0,12.498-5.593,12.498-12.495L483.333,260.141z M433.561,260.141h-25.004
		v-18.75h25.004V260.141z M439.81,234.319l6.246,4.167v21.655h-6.246V234.319z M433.561,228.891v6.249h-25.004v-6.249H433.561z
		 M396.06,238.486l6.248-4.167v25.822h-6.248V238.486z M471.061,366.388H371.056c-3.447,0-6.249-2.801-6.249-6.243v-0.009v-0.012
		l-0.209-93.733h112.501l0.211,93.763C477.304,363.599,474.503,366.388,471.061,366.388z"/>
	<path fill="#2196F3" d="M412.988,317.838l-9.338-15.82l-23.218,39.305h19.345h27.087h34.822l-30.955-55.026L412.988,317.838z
		 M391.381,335.076l12.269-20.766l5.799,9.82l-6.157,10.945H391.381z M410.466,335.076l20.265-36.031l20.268,36.031H410.466z"/>
</g>
</svg>
