<?xml version="1.0" encoding="utf-8"?>
<!-- Generator: Adobe Illustrator 16.0.0, SVG Export Plug-In . SVG Version: 6.00 Build 0)  -->
<!DOCTYPE svg PUBLIC "-//W3C//DTD SVG 1.1//EN" "http://www.w3.org/Graphics/SVG/1.1/DTD/svg11.dtd">
<svg version="1.1" id="Capa_1" xmlns="http://www.w3.org/2000/svg" xmlns:xlink="http://www.w3.org/1999/xlink" x="0px" y="0px"
	 width="841.496px" height="201.999px" viewBox="0 -44.155 841.496 201.999" enable-background="new 0 -44.155 841.496 201.999"
	 xml:space="preserve">
<g>
	<polygon fill="#1ADFFA" points="210.706,-18.111 198.734,-19.14 193.675,-30.038 200.587,-39.908 212.56,-38.879 217.619,-27.98 	
		"/>
	<polygon fill="#1ADFFA" points="264.682,145.892 252.71,144.863 247.651,133.966 254.563,124.096 266.535,125.124 271.594,136.021 
			"/>
	<polygon fill="#1ADFFA" points="229.345,9.805 232.166,-9.719 250.511,-16.973 266.035,-4.701 263.214,14.822 244.868,22.077 	"/>
	<polygon fill="#1ADFFA" points="606.301,124.437 608.488,109.284 622.727,103.654 634.775,113.178 632.586,128.33 618.348,133.96 	
		"/>
	<polygon fill="#1ADFFA" points="281.348,-12.753 276.447,-15.836 276.687,-21.621 281.827,-24.322 286.729,-21.241 
		286.489,-15.455 	"/>
	<polygon fill="#1ADFFA" points="249.847,-36.284 247.479,-37.773 247.595,-40.567 250.079,-41.874 252.446,-40.384 252.331,-37.59 
			"/>
	<polygon fill="#1ADFFA" points="436.51,-2.837 425.477,-3.785 420.815,-13.829 427.185,-22.925 438.218,-21.977 442.881,-11.932 	
		"/>
	<polygon fill="#1ADFFA" points="622.615,23.926 617.016,23.311 614.766,18.146 618.116,13.597 623.716,14.213 625.965,19.378 	"/>
	<polygon fill="#1ADFFA" points="226.101,123.989 220.501,123.373 218.252,118.207 221.602,113.66 227.201,114.276 229.451,119.44 	
		"/>
	<polygon fill="#1ADFFA" points="653.846,1.729 651.628,1.485 650.737,-0.562 652.063,-2.363 654.282,-2.119 655.174,-0.073 	"/>
	<polygon fill="#1ADFFA" points="669.209,125.873 666.99,125.629 666.1,123.583 667.426,121.781 669.645,122.024 670.536,124.071 	
		"/>
	<polygon fill="#1ADFFA" points="507.697,149.955 505.478,149.711 504.588,147.664 505.914,145.863 508.133,146.106 
		509.024,148.152 	"/>
	<polygon fill="#1ADFFA" points="294.7,128.363 292.481,128.121 291.591,126.073 292.918,124.271 295.137,124.517 296.027,126.563 	
		"/>
	<polygon fill="#1ADFFA" points="183.012,4.635 180.793,4.392 179.902,2.345 181.23,0.543 183.448,0.788 184.339,2.833 	"/>
	<polygon fill="#1ADFFA" points="597.379,143.726 595.16,143.483 594.271,141.436 595.597,139.635 597.814,139.879 598.707,141.925 
			"/>
	<polygon fill="#1ADFFA" points="194.638,147.878 192.419,147.635 191.528,145.588 192.855,143.787 195.074,144.03 195.965,146.077 
			"/>
	<polygon fill="#1ADFFA" points="403.897,157.844 401.679,157.6 400.788,155.554 402.115,153.751 404.333,153.995 405.224,156.041 	
		"/>
	<polygon fill="#1ADFFA" points="465.1,0.845 465.878,-4.553 470.951,-6.558 475.243,-3.166 474.463,2.232 469.391,4.238 	"/>
	<polygon fill="#1ADFFA" points="476.725,147.824 477.504,142.427 482.576,140.422 486.869,143.814 486.089,149.212 
		481.017,151.219 	"/>
	<polygon fill="#1ADFFA" points="647.786,135.368 648.565,129.971 653.639,127.966 657.931,131.358 657.15,136.756 652.078,138.763 
			"/>
	<polygon fill="#1ADFFA" points="377.077,141.597 377.857,136.199 382.929,134.193 387.221,137.587 386.441,142.984 381.37,144.99 	
		"/>
	<polygon fill="#1ADFFA" points="499.719,-28.813 493.22,-32.902 493.538,-40.572 500.354,-44.155 506.854,-40.067 506.536,-32.397 
			"/>
	<polygon fill="#1ADFFA" points="407.129,141.003 400.631,136.914 400.949,129.244 407.766,125.66 414.263,129.748 413.947,137.418 
			"/>
	<polygon fill="#1ADFFA" points="459.787,-2.06 450.38,-2.868 446.403,-11.432 451.835,-19.188 461.244,-18.38 465.22,-9.815 	"/>
	<polygon fill="#1ADFFA" points="502.204,126.822 492.797,126.014 488.821,117.449 494.252,109.693 503.66,110.501 507.636,119.065 
			"/>
	<polygon fill="#1ADFFA" points="474.434,19.879 476.652,4.536 491.068,-1.165 503.268,8.479 501.051,23.821 486.634,29.522 	"/>
	<polygon fill="#1ADFFA" points="770.664,109.961 772.383,98.053 783.572,93.63 793.041,101.113 791.32,113.021 780.132,117.445 	
		"/>
	<polygon fill="#1ADFFA" points="515.301,2.151 511.449,-0.271 511.638,-4.817 515.678,-6.941 519.529,-4.519 519.341,0.028 	"/>
	<polygon fill="#1ADFFA" points="490.547,-16.34 488.686,-17.511 488.776,-19.707 490.729,-20.733 492.589,-19.563 492.497,-17.366 
			"/>
	<polygon fill="#1ADFFA" points="637.234,9.944 628.564,9.199 624.9,1.306 629.907,-5.843 638.577,-5.097 642.241,2.796 	"/>
	<polygon fill="#1ADFFA" points="783.484,30.975 779.083,30.492 777.316,26.433 779.949,22.859 784.35,23.343 786.117,27.401 	"/>
	<polygon fill="#1ADFFA" points="471.886,109.609 467.484,109.125 465.718,105.066 468.35,101.492 472.75,101.977 474.519,106.035 	
		"/>
	<polygon fill="#1ADFFA" points="808.027,13.532 806.284,13.34 805.584,11.732 806.627,10.317 808.37,10.508 809.07,12.116 	"/>
	<polygon fill="#1ADFFA" points="820.101,111.09 818.356,110.898 817.656,109.291 818.7,107.874 820.442,108.067 821.144,109.674 	
		"/>
	<polygon fill="#1ADFFA" points="693.177,130.014 691.434,129.823 690.733,128.214 691.776,126.799 693.52,126.99 694.22,128.599 	
		"/>
	<polygon fill="#1ADFFA" points="525.794,113.048 524.051,112.856 523.351,111.248 524.394,109.833 526.137,110.024 
		526.837,111.632 	"/>
	<polygon fill="#1ADFFA" points="438.023,15.815 436.281,15.625 435.581,14.016 436.624,12.6 438.367,12.792 439.066,14.401 	"/>
	<polygon fill="#1ADFFA" points="763.653,125.12 761.909,124.929 761.21,123.32 762.254,121.905 763.996,122.097 764.696,123.705 	
		"/>
	<polygon fill="#1ADFFA" points="447.16,128.384 445.416,128.191 444.717,126.584 445.76,125.167 447.503,125.36 448.203,126.967 	
		"/>
	<polygon fill="#1ADFFA" points="611.605,136.214 609.863,136.022 609.162,134.414 610.205,132.999 611.949,133.189 
		612.648,134.798 	"/>
	<polygon fill="#1ADFFA" points="659.701,12.838 660.314,8.596 664.3,7.02 667.673,9.685 667.061,13.927 663.074,15.503 	"/>
	<polygon fill="#1ADFFA" points="668.837,128.342 669.45,124.1 673.436,122.522 676.81,125.189 676.196,129.431 672.21,131.008 	"/>
	<polygon fill="#1ADFFA" points="803.265,118.552 803.878,114.311 807.865,112.734 811.236,115.401 810.624,119.643 
		806.638,121.219 	"/>
	<polygon fill="#1ADFFA" points="590.528,123.447 591.143,119.205 595.128,117.629 598.501,120.296 597.888,124.536 
		593.903,126.113 	"/>
	<polygon fill="#1ADFFA" points="686.907,-10.47 681.801,-13.683 682.05,-19.71 687.406,-22.526 692.513,-19.313 692.264,-13.287 	
		"/>
	<polygon fill="#1ADFFA" points="614.146,122.979 609.039,119.767 609.289,113.739 614.646,110.923 619.752,114.136 
		619.503,120.163 	"/>
	<polygon fill="#1ADFFA" points="52.778,-2.06 43.371,-2.868 39.394,-11.432 44.827,-19.188 54.235,-18.38 58.211,-9.815 	"/>
	<polygon fill="#1ADFFA" points="95.195,126.822 85.787,126.014 81.812,117.449 87.243,109.693 96.651,110.501 100.627,119.065 	"/>
	<polygon fill="#1ADFFA" points="67.425,19.879 69.642,4.536 84.06,-1.165 96.258,8.479 94.042,23.821 79.625,29.522 	"/>
	<polygon fill="#1ADFFA" points="363.655,109.961 365.375,98.053 376.563,93.63 386.032,101.113 384.311,113.021 373.123,117.445 	
		"/>
	<polygon fill="#1ADFFA" points="108.292,2.151 104.44,-0.271 104.629,-4.817 108.669,-6.941 112.521,-4.519 112.332,0.028 	"/>
	<polygon fill="#1ADFFA" points="83.537,-16.34 81.676,-17.511 81.768,-19.707 83.719,-20.733 85.58,-19.563 85.489,-17.366 	"/>
	<polygon fill="#1ADFFA" points="230.225,9.944 221.556,9.199 217.891,1.306 222.898,-5.843 231.567,-5.097 235.231,2.796 	"/>
	<polygon fill="#1ADFFA" points="376.476,30.975 372.075,30.492 370.308,26.433 372.94,22.859 377.34,23.343 379.107,27.401 	"/>
	<polygon fill="#1ADFFA" points="64.876,109.609 60.476,109.125 58.709,105.066 61.341,101.492 65.741,101.977 67.508,106.035 	"/>
	<polygon fill="#1ADFFA" points="401.019,13.532 399.275,13.34 398.575,11.732 399.618,10.317 401.361,10.508 402.062,12.116 	"/>
	<polygon fill="#1ADFFA" points="413.092,111.09 411.348,110.898 410.647,109.291 411.691,107.874 413.434,108.067 414.134,109.674 
			"/>
	<polygon fill="#1ADFFA" points="286.167,130.014 284.424,129.823 283.724,128.214 284.767,126.799 286.51,126.99 287.211,128.599 	
		"/>
	<polygon fill="#1ADFFA" points="118.785,113.048 117.042,112.856 116.341,111.248 117.384,109.833 119.128,110.024 
		119.828,111.632 	"/>
	<polygon fill="#1ADFFA" points="31.015,15.815 29.272,15.625 28.571,14.016 29.614,12.6 31.358,12.792 32.058,14.401 	"/>
	<polygon fill="#1ADFFA" points="356.645,125.12 354.9,124.929 354.201,123.32 355.244,121.905 356.987,122.097 357.688,123.705 	
		"/>
	<polygon fill="#1ADFFA" points="40.151,128.384 38.408,128.191 37.708,126.584 38.751,125.167 40.494,125.36 41.194,126.967 	"/>
	<polygon fill="#1ADFFA" points="204.597,136.214 202.854,136.022 202.153,134.414 203.196,132.999 204.94,133.189 205.64,134.798 	
		"/>
	<polygon fill="#1ADFFA" points="252.692,12.838 253.305,8.596 257.291,7.02 260.665,9.685 260.051,13.927 256.064,15.503 	"/>
	<polygon fill="#1ADFFA" points="261.828,128.342 262.441,124.1 266.427,122.522 269.8,125.189 269.187,129.431 265.201,131.008 	
		"/>
	<polygon fill="#1ADFFA" points="396.256,118.552 396.869,114.311 400.855,112.734 404.228,115.401 403.615,119.643 
		399.629,121.219 	"/>
	<polygon fill="#1ADFFA" points="183.52,123.447 184.133,119.205 188.119,117.629 191.492,120.296 190.879,124.536 186.894,126.113 
			"/>
	<polygon fill="#1ADFFA" points="279.897,-10.47 274.791,-13.683 275.041,-19.71 280.397,-22.526 285.504,-19.313 285.255,-13.287 	
		"/>
	<polygon fill="#1ADFFA" points="207.137,122.979 202.03,119.767 202.28,113.739 207.637,110.923 212.743,114.136 212.494,120.163 	
		"/>
	<linearGradient id="SVGID_1_" gradientUnits="userSpaceOnUse" x1="421.2065" y1="147.1895" x2="421.2065" y2="28.2797">
		<stop  offset="0" style="stop-color:#7519FF"/>
		<stop  offset="1" style="stop-color:#00E5FF"/>
	</linearGradient>
	<polygon fill="url(#SVGID_1_)" points="842.311,57.81 827,44.303 823.09,45.627 824.573,43.703 819.451,31.984 806.696,30.603 
		799.066,40.974 803.07,50.173 793.302,40.879 773.594,46.65 772.467,51.351 767.54,40.035 744.834,37.537 734.768,51.203 
		715.18,32.563 696.818,37.937 703.434,28.49 696.183,12.867 679.022,11.393 669.116,25.54 670.67,28.888 670.029,29.036 
		668.383,25.257 652.152,23.476 642.443,36.661 646.728,46.503 644.555,45.522 635.106,36.532 628.751,38.393 626.467,37.362 
		622.455,40.235 616.556,41.962 618.135,36.922 600.034,17.166 573.944,22.899 569.21,38.009 568.511,38.958 563.49,33.48 
		547.343,37.029 535.695,25.946 533.354,26.631 529.83,19.989 520.224,19.629 511.522,0.883 489.687,-0.993 477.078,17.009 
		479.056,21.27 460.516,25.556 454.174,46.203 422.808,32.053 414.924,37.699 412.442,32.009 412.057,31.967 412.206,31.493 
		389.171,6.353 355.972,13.648 349.438,34.5 342.67,27.113 312.467,33.751 299.836,9.945 265.868,8.67 251.509,31.697 
		249.091,32.256 246.862,39.512 240.377,38.27 235.057,44.399 219.458,37.362 208.537,45.184 211.126,36.922 193.025,17.166 
		166.936,22.899 163.635,33.432 156.564,33.166 156.35,33.509 132.748,38.696 122.821,19.989 96.127,18.987 81.993,41.652 
		83.013,43.573 76.096,42.248 63.138,57.179 63.575,58.433 54.9,48.964 37.334,52.824 29.987,38.979 10.231,38.237 -0.229,54.651 
		-0.231,57.81 -0.242,57.81 -0.247,66.81 0.248,66.81 0.248,79.912 15.669,94.104 19.455,92.96 17.908,94.976 23,106.739 
		35.737,108.144 43.36,97.783 39.354,88.589 49.12,97.887 68.828,92.117 69.953,87.417 74.88,98.733 97.584,101.231 107.651,87.565 
		127.24,106.206 145.601,100.831 138.985,110.279 146.236,125.9 163.396,127.375 171.063,116.427 172.767,120.337 188.999,122.123 
		198.71,108.939 193.617,97.241 206.047,109.071 225.646,103.334 242.385,121.603 265.898,116.436 272.954,122.014 284.143,117.589 
		285.863,105.681 283.966,104.182 288.215,103.248 305.458,119.658 312.035,117.733 312.589,118.779 324.34,119.221 320.405,124.84 
		329.632,144.72 351.468,146.596 364.076,128.593 362.098,124.334 380.639,120.048 386.981,99.399 418.348,113.55 429.468,105.585 
		429.973,106.739 431.216,106.877 428.949,114.111 451.982,139.25 481.903,132.674 490.881,139.773 505.119,134.143 507.31,118.99 
		504.895,117.082 528.688,111.854 541.319,135.657 575.286,136.934 593.272,108.09 592.532,106.696 593.328,106.512 
		593.504,105.939 600.777,107.334 610.716,95.881 622.962,101.406 627.301,98.299 627.749,98.787 632.585,97.725 631.293,101.847 
		649.394,121.603 672.907,116.436 679.963,122.014 691.152,117.589 692.872,105.681 690.976,104.182 709.672,100.072 
		719.599,118.779 746.292,119.781 760.426,97.116 759.406,95.195 766.323,96.521 779.282,81.589 778.843,80.335 787.52,89.805 
		805.086,85.943 812.432,99.789 832.188,100.531 842.649,83.663 842.659,75.81 842.248,75.81 842.248,75.497 842.248,58.855 
		842.248,57.81 	"/>
</g>
</svg>
