<?xml version="1.0" encoding="utf-8"?>
<!-- Generator: Adobe Illustrator 16.0.0, SVG Export Plug-In . SVG Version: 6.00 Build 0)  -->
<!DOCTYPE svg PUBLIC "-//W3C//DTD SVG 1.1//EN" "http://www.w3.org/Graphics/SVG/1.1/DTD/svg11.dtd">
<svg version="1.1" id="Capa_1" xmlns="http://www.w3.org/2000/svg" xmlns:xlink="http://www.w3.org/1999/xlink" x="0px" y="0px"
	 width="150px" height="150px" viewBox="0 0 150 150" enable-background="new 0 0 150 150" xml:space="preserve">
<g opacity="0.8">
	<polygon fill="#FFFFFF" points="81.893,68.063 150.127,68.063 142.57,82.855 74.337,82.855 	"/>
	<polygon fill="#616161" points="82.496,69.048 148.516,69.048 141.968,81.871 75.949,81.871 	"/>
	<path fill="#FFFFFF" d="M83.9,70.62h11.5c1.914,0,3.271,0.223,4.064,0.665c0.801,0.442,1.031,0.99,0.696,1.643
		c-0.282,0.548-0.892,1.019-1.822,1.412c-0.625,0.261-1.444,0.469-2.463,0.62c1.345,0.16,2.252,0.436,2.728,0.825
		c0.472,0.39,0.557,0.88,0.254,1.47c-0.25,0.479-0.713,0.913-1.387,1.297c-0.679,0.386-1.486,0.688-2.435,0.911
		c-0.584,0.139-1.413,0.24-2.487,0.303c-1.427,0.086-2.365,0.129-2.818,0.129H79.13L83.9,70.62L83.9,70.62z M88.227,74.257h2.668
		c0.959,0,1.664-0.078,2.123-0.231c0.455-0.156,0.756-0.377,0.903-0.667c0.14-0.27,0.062-0.48-0.235-0.633
		c-0.3-0.152-0.912-0.229-1.843-0.229h-2.711L88.227,74.257L88.227,74.257z M86.354,77.898h3.131c1.061,0,1.849-0.086,2.369-0.262
		c0.525-0.175,0.862-0.41,1.017-0.705c0.141-0.273,0.041-0.494-0.304-0.662c-0.346-0.166-1.051-0.248-2.129-0.248h-3.119
		L86.354,77.898L86.354,77.898z"/>
	<path fill="#FFFFFF" d="M117.758,70.765h6.469l-2.793,5.274c-1.756,3.313-7.414,4.535-12.273,4.479
		c-2.637-0.031-5.063-0.149-6.445-1.177c-0.873-0.647-1.117-1.692-0.568-2.769l2.965-5.807h6.47l-2.962,5.577
		c-1.215,2.286,5.058,2.417,6.105,0.368L117.758,70.765L117.758,70.765z"/>
	<path fill="#FFFFFF" d="M124.295,77.006l6.313-0.007c0.043,0.897,0.91,1.091,1.891,1.091c0.566,0,2.92,0.122,3.23-0.328
		c0.744-1.072-2.578-1.209-2.817-1.236c-1.987-0.228-4.001-0.434-4.718-0.625c-1.78-0.479-2.223-1.375-1.938-2.152
		c1.122-3.038,7.569-3.416,10.26-3.416c2.477,0,6.906-0.061,7.276,3.148l-6.694,0.006c0.008-0.282-0.051-0.498-0.154-0.663
		c-0.286-0.448-1.34-0.479-2.314-0.392c-1.161,0.103-2.697,1.008-0.906,1.304c0.432,0.071,1.047,0.137,1.848,0.197
		c2.617,0.194,7.683,1.038,6.992,2.972c-1.188,3.337-8.385,3.572-11.141,3.572C129.303,80.479,123.797,80.518,124.295,77.006
		L124.295,77.006z"/>
	<path fill="#FFFFFF" d="M31.704,79.598l0.013,0.116l0.022,0.158l0.028,0.157l0.034,0.156l0.043,0.172l0.051,0.175l0.06,0.172
		l0.068,0.17l0.078,0.171l0.086,0.166l0.096,0.164l0.106,0.16l0.116,0.156l0.125,0.149l0.134,0.146l0.144,0.14l0.152,0.133
		l0.161,0.126l0.169,0.117l0.177,0.111l0.185,0.104l0.191,0.096l0.198,0.09l0.206,0.08l0.213,0.074l0.219,0.066l0.226,0.063
		l0.234,0.053l0.241,0.047l0.249,0.041l0.257,0.033l0.265,0.029l0.273,0.021l0.282,0.016l0.291,0.011l0.307,0.004l0.366-0.008
		l0.368-0.022L38.5,83.37l0.358-0.052l0.353-0.063l0.347-0.076l0.341-0.088l0.335-0.099l0.329-0.111l0.323-0.121l0.316-0.131
		l0.31-0.139l0.303-0.149l0.296-0.156l0.289-0.164l0.283-0.172l0.275-0.179l0.268-0.185l0.262-0.19l0.254-0.194l0.247-0.199
		l0.24-0.204l0.233-0.208l0.063-0.061l-1.34,2.702h6.974l2.571-5.376l0.012-0.021l0.013-0.026l0.019-0.033l0.024-0.04l0.029-0.048
		l0.033-0.053l0.037-0.058l0.041-0.063l0.044-0.064l0.047-0.067l0.05-0.07l0.053-0.071l0.056-0.074l0.058-0.076l0.061-0.078
		l0.063-0.077l0.065-0.078l0.066-0.077l0.069-0.078l0.069-0.078l0.07-0.076l0.072-0.075l0.072-0.073l0.073-0.07l0.073-0.069
		l0.073-0.066l0.073-0.063l0.072-0.061l0.071-0.057l0.07-0.053l0.068-0.049l0.067-0.047l0.052-0.033h0.001l-0.017,0.052
		l-0.018,0.054l-0.02,0.055l-0.021,0.055L54.446,76l-0.025,0.059l-0.025,0.059l-0.027,0.06l-0.028,0.062l-0.032,0.063l-3.475,6.832
		h6.933l1.289-2.657l0.021,0.2l0.051,0.271l0.074,0.265l0.097,0.259l0.121,0.252l0.145,0.239l0.168,0.228l0.19,0.213l0.204,0.188
		l0.141,0.112l0.139,0.097l0.143,0.091l0.148,0.082l0.152,0.073l0.155,0.067l0.159,0.062l0.162,0.054l0.166,0.047l0.167,0.041
		l0.171,0.035l0.174,0.027l0.177,0.023l0.18,0.019l0.182,0.013l0.185,0.006h0.189l0.19-0.006l0.193-0.011l0.195-0.016l0.198-0.022
		l0.2-0.025l0.202-0.034l0.206-0.038l0.207-0.044l0.209-0.05l0.211-0.058l0.213-0.062l0.215-0.066l0.217-0.074l0.218-0.08
		l0.217-0.084l0.109-0.043l0.101-0.043l0.097-0.041l0.039-0.018l-0.018,0.443h5.998l0.81-1.844
		c-0.255,0.004-0.378-0.131-0.245-0.383l2.933-5.549l0.091-0.164l0.099-0.185l0.092-0.185l0.084-0.182l0.078-0.181l0.07-0.178
		l0.063-0.178l0.057-0.178l0.048-0.177l0.039-0.177l0.033-0.176l0.023-0.176l0.016-0.177l0.007-0.176l-0.003-0.175l-0.013-0.175
		l-0.022-0.172l-0.033-0.17l-0.043-0.168l-0.053-0.163l-0.063-0.16l-0.072-0.153l-0.08-0.149l-0.088-0.142l-0.096-0.135
		l-0.102-0.128l-0.107-0.122l-0.111-0.114l-0.116-0.109l-0.12-0.102l-0.123-0.097l-0.125-0.09l-0.125-0.084l-0.126-0.08
		l-0.128-0.074l-0.129-0.07l-0.13-0.066l-0.132-0.061l-0.132-0.058l-0.132-0.053l-0.134-0.047l-0.133-0.046l-0.134-0.041
		l-0.134-0.038l-0.134-0.036l-0.134-0.03l-0.134-0.029l-0.133-0.026l-0.135-0.022l-0.133-0.021l-0.134-0.018l-0.133-0.017
		l-0.131-0.013l-0.133-0.012l-0.132-0.009l-0.132-0.008l-0.13-0.006l-0.131-0.005l-0.13-0.003l-0.128-0.001L71.445,69.3h-0.127
		l-0.128,0.001l-0.131,0.001l-0.294,0.009l-0.303,0.016l-0.307,0.022l-0.31,0.029l-0.312,0.036l-0.314,0.042l-0.316,0.051
		l-0.316,0.055l-0.316,0.064l-0.317,0.07l-0.315,0.078l-0.314,0.087l-0.311,0.094l-0.309,0.101l-0.306,0.11L66.1,70.285
		l-0.297,0.126l-0.291,0.137l-0.285,0.145l-0.278,0.155l-0.272,0.165l-0.263,0.177l-0.254,0.188l-0.246,0.201l-0.233,0.212
		l-0.222,0.227l-0.208,0.241l-0.194,0.255l-0.176,0.27l-0.157,0.283l-0.136,0.299l-0.669,1.846h0.765l-0.294,0.154l-0.307,0.178
		l-0.294,0.188l-0.28,0.194l-0.267,0.206l-0.136,0.113l0.296-0.609l0.129-0.277l0.117-0.277l0.103-0.271l0.088-0.265l0.073-0.261
		l0.058-0.257l0.043-0.253l0.026-0.252l0.009-0.249l-0.009-0.248l-0.029-0.245l-0.05-0.241l-0.071-0.235l-0.095-0.226l-0.115-0.216
		l-0.136-0.201l-0.152-0.183l-0.167-0.166l-0.178-0.146l-0.187-0.128l-0.192-0.109l-0.197-0.093l-0.198-0.078l-0.202-0.063
		l-0.201-0.051l-0.204-0.041l-0.204-0.031l-0.204-0.021l-0.205-0.014l-0.206-0.004l-0.206,0.002l-0.205,0.008l-0.15,0.01
		l-0.147,0.012l-0.148,0.015l-0.148,0.02l-0.148,0.021l-0.148,0.023l-0.148,0.026L57.251,70.7L57.1,70.733l-0.148,0.032
		l-0.146,0.037l-0.147,0.038l-0.146,0.039l-0.145,0.041l-0.145,0.044l-0.072,0.023l1.821-3.505h-7.033l-2.87,5.791l-0.003-0.082
		l-0.007-0.118l-0.011-0.119l-0.014-0.118l-0.017-0.117l-0.021-0.117l-0.024-0.117l-0.028-0.115l-0.031-0.115l-0.035-0.113
		l-0.04-0.114l-0.042-0.111l-0.047-0.11l-0.051-0.109l-0.056-0.11l-0.074-0.133l-0.083-0.133l-0.09-0.13l-0.094-0.126l-0.102-0.121
		l-0.107-0.117l-0.113-0.112l-0.118-0.108l-0.122-0.102l-0.128-0.097l-0.133-0.092l-0.136-0.087l-0.14-0.082l-0.145-0.077L45.909,70
		l-0.151-0.067l-0.154-0.063l-0.16-0.057l-0.162-0.053l-0.166-0.048l-0.169-0.043l-0.172-0.041l-0.176-0.035L44.42,69.56
		l-0.182-0.028l-0.188-0.023l-0.19-0.021l-0.194-0.017l-0.197-0.013l-0.202-0.009l-0.206-0.005l-0.214-0.002l-0.387,0.007
		l-0.389,0.02l-0.386,0.034l-0.382,0.046l-0.379,0.058l-0.375,0.072l-0.371,0.083l-0.366,0.096l-0.361,0.107l-0.356,0.119
		l-0.352,0.13l-0.346,0.14l-0.34,0.151l-0.335,0.162l-0.329,0.172L37.07,71.02l-0.316,0.191l-0.31,0.201l-0.303,0.21l-0.296,0.218
		l-0.289,0.228l-0.282,0.235L35,72.548l-0.267,0.251l-0.258,0.26l-0.25,0.268l-0.182,0.207l-0.006-0.124l-0.019-0.215l-0.028-0.216
		l-0.037-0.213l-0.048-0.212l-0.058-0.211l-0.068-0.208l-0.08-0.207l-0.092-0.202l-0.104-0.199l-0.113-0.19l-0.084-0.126
		l-0.089-0.12l-0.094-0.116l-0.098-0.111l-0.103-0.106l-0.107-0.103l-0.112-0.097l-0.115-0.093l-0.119-0.088l-0.122-0.084
		l-0.126-0.079l-0.128-0.076l-0.131-0.07l-0.135-0.066l-0.137-0.063l-0.14-0.058l-0.142-0.054l-0.145-0.051l-0.147-0.046
		l-0.15-0.043l-0.151-0.041l-0.154-0.035l-0.157-0.032l-0.159-0.028l-0.161-0.026L30.022,69.5l-0.166-0.018l-0.168-0.015
		l-0.168-0.011l-0.172-0.009l-0.174-0.005l-0.179-0.001l-0.432,0.006l-0.428,0.02L27.716,69.5l-0.412,0.046l-0.405,0.058
		l-0.397,0.072l-0.389,0.083l-0.381,0.095l-0.373,0.107l-0.365,0.12l-0.358,0.131l-0.349,0.141l-0.341,0.154l-0.333,0.163
		l-0.325,0.175l-0.317,0.184l-0.308,0.194l-0.3,0.204l-0.292,0.212l-0.283,0.221l-0.276,0.229l-0.267,0.239l-0.259,0.245
		l-0.251,0.253l-0.243,0.26l-0.177,0.2l2.838-5.767h-6.4h-0.644h-3.858l-0.259,0.006l-0.269,0.018L11.46,67.57l-0.262,0.041
		l-0.259,0.052l-0.253,0.063l-0.25,0.072l-0.245,0.083L9.952,67.97l-0.235,0.098l-0.23,0.108l-0.225,0.116l-0.22,0.123l-0.214,0.131
		l-0.209,0.137l-0.203,0.144l-0.198,0.149l-0.192,0.155l-0.187,0.162l-0.181,0.166l-0.175,0.17l-0.169,0.174l-0.163,0.18
		l-0.159,0.184L6.84,70.354l-0.146,0.19l-0.141,0.194l-0.134,0.196l-0.128,0.2l-0.032,0.054H4.778l-2.151,4.365H4l-3.873,7.581
		h6.908l3.729-7.581h1.432l-3.692,7.581h6.966l2.164-4.396l-0.011,0.092l-0.016,0.169l-0.01,0.171l-0.004,0.169l0.001,0.171
		l0.007,0.17l0.014,0.17l0.02,0.172l0.027,0.17l0.035,0.168l0.046,0.181l0.055,0.177l0.063,0.176l0.074,0.174l0.083,0.172
		l0.093,0.168l0.104,0.162l0.115,0.158l0.124,0.151l0.133,0.146l0.143,0.138l0.151,0.132l0.159,0.122l0.167,0.114l0.174,0.107
		l0.18,0.1l0.188,0.092l0.193,0.085l0.2,0.075l0.207,0.07l0.212,0.063l0.219,0.059l0.225,0.051l0.233,0.043l0.239,0.041l0.246,0.033
		l0.254,0.028l0.261,0.022l0.27,0.019l0.279,0.013l0.286,0.008l0.3,0.004l0.208-0.004l0.217-0.011l0.22-0.018l0.226-0.022
		l0.229-0.029l0.233-0.034l0.237-0.042l0.242-0.049l0.245-0.055l0.248-0.062l0.251-0.066l0.254-0.073l0.256-0.08l0.258-0.086
		l0.259-0.095l0.261-0.1l0.262-0.107l0.263-0.112l0.263-0.121l0.263-0.127l0.263-0.135l0.262-0.143l0.261-0.148l0.26-0.156
		l0.257-0.164l0.255-0.172l0.252-0.178l0.25-0.188l0.246-0.194l0.242-0.204l0.238-0.21l0.228-0.215L31.323,80l0.036-0.035
		l0.037-0.038l0.036-0.034l0.035-0.039l0.035-0.035l0.036-0.037l0.035-0.037l0.035-0.038l0.035-0.038l0.034-0.039L31.704,79.598
		L31.704,79.598z M46.396,76.648h-6.089c-0.081,0.1-0.623,0.838-1.109,1.259c-0.431,0.372-0.883,0.485-0.644-0.287
		c0.138-0.448,0.402-0.961,0.727-1.438c0.368-0.543,0.814-1.042,1.243-1.351c0.653-0.471,0.572,0.115,0.484,0.501l-0.201,0.884
		h5.802L46.396,76.648L46.396,76.648z"/>
	<path fill="#232323" d="M41.327,73.489c0.638,0,0.958,0.282,1.021,0.771c0.029,0.22,0.005,0.481-0.064,0.778h4.34
		c0.357-1.166,0.373-2.155-0.021-2.899c-0.51-0.964-1.71-1.52-3.749-1.52c-3.76,0-7.097,2.085-8.944,5.078
		c-0.88,1.427-1.248,2.984-0.962,4.223c0.314,1.362,1.456,2.34,4.449,2.34c3.485,0,6.317-2.273,7.856-4.435H40.87
		c-0.674,0.843-1.551,1.563-2.413,1.563c-0.936,0-1.196-0.496-1.158-1.187c0.035-0.627,0.305-1.416,0.723-2.14
		C38.899,74.545,40.152,73.489,41.327,73.489L41.327,73.489z M28.998,70.618c-4.301,0-7.146,2.085-8.992,5.077
		c-0.881,1.429-1.446,3.158-1.16,4.396c0.314,1.362,1.529,2.167,4.522,2.167c1.827,0,4.914-0.954,7.1-3.069
		c0.162-0.157,0.319-0.328,0.473-0.514h-4.223c-0.81,0.719-1.662,1.051-2.186,1.051c-1.093,0-1.473-0.453-1.479-1.225
		c-0.003-0.322,0.071-0.71,0.193-1.109h8.574c1.002-1.785,1.477-4.019,0.575-5.429C31.85,71.11,30.654,70.618,28.998,70.618
		L28.998,70.618z M24.294,75.245c0.847-1.266,1.908-2.094,3.227-2.094c0.605,0,1.002,0.276,1.134,0.76
		c0.1,0.369,0.079,0.836-0.023,1.333L24.294,75.245L24.294,75.245z M57.028,81.954l3.31-6.822c1.314-2.71-0.005-3.511-1.842-3.41
		c-1.306,0.072-2.869,0.603-3.91,1.237c-0.098,0.06-0.188,0.125-0.28,0.182c-0.328,0.198-0.676,0.144-0.586-0.03l2.313-4.45H51.67
		l-6.588,13.294h4.334l2.254-4.713c0.215-0.45,1.155-1.798,2.177-2.465c0.872-0.57,1.499-0.421,1.768-0.069
		c0.346,0.454,0.158,1.312-0.254,2.123l-2.606,5.124h4.1L57.028,81.954L57.028,81.954z M67.562,81.891h4.237
		c-0.224-0.324-0.231-1.05,0-1.488l2.998-5.672c1.023-1.777,0.77-2.808-0.21-3.487c-0.978-0.68-2.235-0.786-3.5-0.76
		c-2.89,0.055-6.726,1.142-7.49,3.553h4.015c0.656-0.963,1.587-1,2.242-1.019c0.656-0.018,1.134,0.232,1.184,0.583
		c0.043,0.311-0.236,0.73-0.957,1.066c-2.042,0.949-4.484,0.527-6.555,1.45c-3.172,1.415-4.094,4.349-2.633,5.577
		c0.82,0.69,2.573,0.824,4.681-0.019c1.021-0.409,1.344-0.731,2.038-0.999L67.562,81.891L67.562,81.891z M69.47,77.008
		c-0.711,1.354-1.409,2.047-2.179,2.42c-0.989,0.479-1.978,0.383-2.213-0.128c-0.149-0.321,0.039-0.931,0.93-1.419
		C66.73,77.484,67.9,77.229,69.47,77.008L69.47,77.008z M10.388,81.954h4.35l6.525-13.26h-4.416L10.388,81.954L10.388,81.954z
		 M2.051,81.954h4.25l3.729-7.579h2.036l0.99-2.011h-2.037l0.038-0.077c0.407-0.826,1.118-1.258,2.617-1.146l1.195-2.448h-2.604
		c-2.352,0-4.308,1.696-5.274,3.588L6.95,72.365H5.511l-0.991,2.01h1.403L2.051,81.954L2.051,81.954z"/>
</g>
</svg>
