<?xml version="1.0" encoding="utf-8"?>
<!-- Generator: Adobe Illustrator 16.0.0, SVG Export Plug-In . SVG Version: 6.00 Build 0)  -->
<!DOCTYPE svg PUBLIC "-//W3C//DTD SVG 1.1//EN" "http://www.w3.org/Graphics/SVG/1.1/DTD/svg11.dtd">
<svg version="1.1" id="Capa_1" xmlns="http://www.w3.org/2000/svg" xmlns:xlink="http://www.w3.org/1999/xlink" x="0px" y="0px"
	 width="150px" height="150px" viewBox="0 0 150 150" enable-background="new 0 0 150 150" xml:space="preserve">
<g opacity="0.8">
	<path fill="#838383" d="M80.714,142.574c-38.327,0-69.508-31.182-69.508-69.509c0-38.327,31.182-69.508,69.508-69.508
		c38.327,0,69.509,31.182,69.509,69.508C150.223,111.395,119.041,142.574,80.714,142.574z M80.714,6.175
		c-36.883,0-66.89,30.007-66.89,66.891c0,36.884,30.007,66.891,66.89,66.891c36.884,0,66.892-30.007,66.892-66.891
		C147.604,36.182,117.598,6.175,80.714,6.175z"/>
	<path fill="#4F4F4F" d="M74.536,142.574c-38.327,0-69.508-31.182-69.508-69.509c0-38.327,31.182-69.508,69.508-69.508
		c38.327,0,69.509,31.182,69.509,69.508C144.045,111.395,112.863,142.574,74.536,142.574z M74.536,6.175
		c-36.883,0-66.891,30.007-66.891,66.891c0,36.884,30.007,66.891,66.891,66.891c36.884,0,66.891-30.007,66.891-66.891
		C141.427,36.182,111.42,6.175,74.536,6.175z"/>
	<g>
		<g>
			<path fill="#454545" d="M64.169,59.691h2.983v6.044c-1.669,1.837-4.055,2.756-7.156,2.756c-2.613,0-4.8-0.86-6.562-2.579
				c-1.762-1.72-2.643-3.894-2.643-6.523c0-2.63,0.898-4.82,2.693-6.574c1.795-1.753,3.964-2.63,6.511-2.63
				c2.545,0,4.661,0.742,6.347,2.225l-1.593,2.276c-0.691-0.59-1.387-1-2.086-1.227c-0.7-0.228-1.514-0.341-2.44-0.341
				c-1.787,0-3.287,0.578-4.501,1.732c-1.214,1.154-1.82,2.671-1.82,4.55c0,1.88,0.589,3.389,1.77,4.527
				c1.179,1.138,2.608,1.707,4.286,1.707c1.677,0,3.081-0.362,4.21-1.086L64.169,59.691L64.169,59.691z"/>
			<path fill="#454545" d="M83.184,62.802H72.64c0.067,0.978,0.515,1.766,1.34,2.364s1.771,0.897,2.833,0.897
				c1.688,0,2.967-0.53,3.845-1.593l1.616,1.771c-1.449,1.5-3.338,2.25-5.664,2.25c-1.886,0-3.491-0.628-4.815-1.884
				c-1.323-1.255-1.984-2.941-1.984-5.057c0-2.116,0.674-3.796,2.022-5.044c1.349-1.248,2.938-1.872,4.768-1.872
				c1.828,0,3.385,0.552,4.666,1.657c1.278,1.104,1.922,2.625,1.922,4.563v1.948H83.184z M72.64,60.577h7.711
				c0-1.128-0.354-1.997-1.063-2.604c-0.707-0.607-1.579-0.91-2.617-0.91c-1.036,0-1.969,0.315-2.793,0.948
				C73.053,58.643,72.64,59.498,72.64,60.577z"/>
			<path fill="#454545" d="M97.545,66.481c-1.35,1.34-3.033,2.01-5.057,2.01c-2.024,0-3.709-0.67-5.057-2.01
				c-1.352-1.341-2.023-2.98-2.023-4.918s0.674-3.579,2.023-4.919c1.348-1.339,3.031-2.01,5.057-2.01c2.021,0,3.707,0.67,5.057,2.01
				s2.023,2.98,2.023,4.919C99.568,63.501,98.895,65.141,97.545,66.481z M89.439,64.736c0.802,0.818,1.816,1.227,3.049,1.227
				c1.229,0,2.246-0.409,3.047-1.227c0.8-0.817,1.201-1.875,1.201-3.173s-0.401-2.356-1.201-3.174
				c-0.801-0.817-1.816-1.227-3.047-1.227c-1.231,0-2.247,0.409-3.049,1.227c-0.799,0.818-1.198,1.876-1.198,3.174
				C88.241,62.862,88.641,63.919,89.439,64.736z"/>
		</g>
		<g>
			<path fill="#A6A6A6" d="M32.517,68.245c-4.755,1.012-6.625,4.013-6.625,7.17c0,1.599,0.467,3.118,1.169,4.248l-4.092,3.313
				c-1.832-1.949-2.649-4.563-2.649-7.056c0-6.391,5.65-12.158,16.483-12.158c11.145,0,16.718,6.079,16.718,14.262
				c0,8.494-5.807,18.197-15.704,18.197c-2.962,0-5.651-0.896-8.146-2.884h-4.792L32.517,68.245z M38.479,67.972l-6.742,22.057
				c1.402,1.052,3.001,1.402,4.521,1.402c7.833,0,11.301-7.562,11.301-13.834C47.558,72.375,45.064,68.595,38.479,67.972z"/>
			<path fill="#A6A6A6" d="M78.07,83.441c-2.688,5.885-7.131,10.365-13.833,10.365c-5.767,0-9.43-3.271-9.43-8.65
				c0-5.885,4.442-12.041,11.144-12.041c4.326,0,7.016,2.572,7.016,5.572c0,3.391-3.313,7.717-11.964,7.48
				c0.506,2.338,2.299,3.702,5.027,3.702c3.741,0,7.442-2.688,9.82-7.521C76.59,82.391,77.682,82.975,78.07,83.441z M60.925,83.559
				c4.792-0.078,6.897-2.182,6.897-3.896c0-0.896-0.546-1.715-1.949-1.715C63.419,77.947,61.354,80.48,60.925,83.559z"/>
			<path fill="#A6A6A6" d="M87.734,77.52c-0.313-0.154-0.701-0.232-1.168-0.232c-2.885,0-5.65,3.586-5.65,7.402
				c0,3.195,1.871,5.185,5.145,5.185c3.701,0,7.442-2.688,9.819-7.521c0.741,0.041,1.832,0.625,2.222,1.092
				c-2.688,5.885-7.131,10.365-13.834,10.365c-5.768,0-9.432-3.271-9.432-8.61c0-5.806,4.365-12.081,11.34-12.081
				c4.872,0,7.133,3.002,7.133,5.806c0,2.104-1.287,4.288-3.664,4.288c-1.752,0-3.156-1.402-3.156-3.156
				C86.488,79.039,86.956,78.104,87.734,77.52z"/>
			<path fill="#A6A6A6" d="M121.6,83.441c-1.908,4.17-4.793,6.002-9.041,6.197c-2.143,2.413-5.222,4.053-8.807,4.053
				c-5.3,0-8.924-3.469-8.924-8.457c0-5.885,4.949-12.119,11.925-12.119c5.183,0,8.963,3.39,8.963,8.455
				c0,1.754-0.429,3.508-1.209,5.104c2.261-0.624,3.819-2.183,4.871-4.325C120.119,82.391,121.21,82.975,121.6,83.441z
				 M109.129,83.169c0.234,0,0.469,0.04,0.663,0.077c0.077-0.428,0.155-0.934,0.155-1.402c0-3.039-1.87-4.091-3.584-4.091
				c-2.963,0-5.885,3.431-5.885,7.288c0,3,1.793,4.051,3.506,4.051c0.896,0,1.793-0.271,2.611-0.816
				c-0.391-0.508-0.623-1.17-0.623-1.909C105.975,84.611,107.376,83.169,109.129,83.169z"/>
		</g>
		<g>
			<g>
				<path fill="#454545" d="M100.083,70.373c0,0,14.377-7.887,19.099,7.023C119.182,77.396,114.857,66.104,100.083,70.373z"/>
				
					<linearGradient id="SVGID_1_" gradientUnits="userSpaceOnUse" x1="218.5957" y1="851.1602" x2="239.7303" y2="862.264" gradientTransform="matrix(0.9465 -0.3227 0.3227 0.9465 -377.1509 -676.9774)">
					<stop  offset="0" style="stop-color:#454545"/>
					<stop  offset="0.1074" style="stop-color:#494949"/>
					<stop  offset="0.2672" style="stop-color:#545454"/>
					<stop  offset="0.4597" style="stop-color:#656565"/>
					<stop  offset="0.6776" style="stop-color:#7C7C7C"/>
					<stop  offset="0.9141" style="stop-color:#9A9A9A"/>
					<stop  offset="1" style="stop-color:#A6A6A6"/>
				</linearGradient>
				<path fill="url(#SVGID_1_)" d="M115.75,69.103c0,0-17.977-2.113-12.002-20.333c0,0,10.736,3.313,13.467,15.286
					c0,0,7.764,0.035,10.771-5.398c0,0,1.188,11.086-10.24,10.4c0,0,3.941-0.793,6.166-4.822c0,0-2.876,3.5-6.83,4.185
					c0,0-6.225-2.68-9.463-9.955C107.619,58.465,108.491,64.161,115.75,69.103z"/>
			</g>
		</g>
	</g>
	<path fill="#A6A6A6" d="M69.731,142.574c-38.327,0-69.509-31.182-69.509-69.509c0-38.327,31.182-69.508,69.509-69.508
		c38.326,0,69.509,31.182,69.509,69.508C139.24,111.395,108.059,142.574,69.731,142.574z M69.731,6.175
		C32.847,6.175,2.84,36.182,2.84,73.066c0,36.884,30.007,66.891,66.891,66.891c36.882,0,66.891-30.007,66.891-66.891
		C136.622,36.182,106.613,6.175,69.731,6.175z"/>
	<path fill="#6E6E6E" d="M77.969,146.691c-38.327,0-69.509-31.183-69.509-69.508c0-38.329,31.182-69.509,69.509-69.509
		c38.326,0,69.508,31.181,69.508,69.509C147.477,115.512,116.295,146.691,77.969,146.691z M77.969,10.294
		c-36.884,0-66.891,30.006-66.891,66.89c0,36.885,30.007,66.894,66.891,66.894c36.883,0,66.891-30.009,66.891-66.894
		C144.859,40.3,114.852,10.294,77.969,10.294z"/>
	<g enable-background="new    ">
		<path fill="#454545" d="M86.54,96.784l-1.305,4.252c-0.079,0.259-0.103,0.519,0.142,0.519c0.354,0,0.809-0.605,1.242-1.485
			c0.148,0.008,0.369,0.126,0.447,0.22c-0.542,1.187-1.273,2.066-2.169,2.066c-0.511,0-0.747-0.274-0.817-0.636
			c-0.354,0.385-0.816,0.636-1.328,0.636c-0.754,0-1.289-0.519-1.289-1.461c0-1.273,0.943-2.688,2.17-2.688
			c0.518,0,0.911,0.251,1.1,0.723l0.66-2.146H86.54z M83.781,99.268c-0.558,0-1.1,0.786-1.1,1.47c0,0.424,0.228,0.668,0.558,0.668
			c0.573,0,1.116-0.786,1.116-1.462C84.355,99.487,84.096,99.268,83.781,99.268z"/>
		<path fill="#454545" d="M91.104,100.289c-0.543,1.187-1.438,2.091-2.791,2.091c-1.162,0-1.9-0.66-1.9-1.745
			c0-1.187,0.895-2.428,2.247-2.428c0.872,0,1.414,0.519,1.414,1.123c0,0.684-0.668,1.557-2.412,1.509
			c0.103,0.472,0.464,0.747,1.014,0.747c0.755,0,1.501-0.542,1.979-1.517C90.805,100.077,91.024,100.195,91.104,100.289z
			 M87.645,100.313c0.967-0.016,1.392-0.439,1.392-0.785c0-0.182-0.11-0.347-0.394-0.347
			C88.148,99.181,87.731,99.692,87.645,100.313z"/>
		<path fill="#454545" d="M90.063,100.808c0-0.66,0.448-0.888,0.731-0.841c0.29-0.55,0.636-1.367,0.841-1.988l0.92,0.205
			c0.298,0.958,1.006,1.736,1.006,2.671c0,0.205-0.032,0.401-0.095,0.582c0.433-0.307,0.723-0.778,1.014-1.367
			c0.149,0.008,0.369,0.126,0.448,0.22c-0.543,1.187-1.328,2.091-2.939,2.091C90.841,102.38,90.063,101.602,90.063,100.808z
			 M91.776,99c-0.165,0.409-0.354,0.817-0.55,1.195c0.094,0.109,0.156,0.251,0.156,0.408c0,0.235-0.133,0.44-0.322,0.55
			c0.063,0.268,0.307,0.472,0.645,0.472c0.4,0,0.684-0.299,0.684-0.786C92.389,100.289,91.996,99.668,91.776,99z"/>
		<path fill="#454545" d="M96.158,98.277l-0.816,2.672c-0.103,0.338-0.055,0.605,0.251,0.605c0.44,0,0.864-0.59,1.305-1.485
			c0.149,0.008,0.369,0.126,0.448,0.22c-0.559,1.218-1.25,2.066-2.201,2.066c-0.919,0-1.146-0.762-0.871-1.674l0.738-2.404H96.158z
			 M95.923,96.47c0.386,0,0.676,0.307,0.676,0.684c0,0.378-0.29,0.668-0.676,0.668c-0.377,0-0.668-0.29-0.668-0.668
			C95.255,96.776,95.546,96.47,95.923,96.47z"/>
		<path fill="#454545" d="M102.232,100.289c-0.527,1.147-1.211,1.909-2.334,2.452l-0.048,0.157
			c-0.487,1.595-1.391,1.988-2.066,1.988c-0.692,0-1.101-0.386-1.101-0.928c0-1.029,1.431-1.187,2.122-1.375l0.181-0.613
			c-0.307,0.244-0.66,0.385-1.053,0.385c-0.755,0-1.289-0.519-1.289-1.461c0-1.273,0.943-2.688,2.169-2.688
			c0.526,0,0.911,0.251,1.101,0.723l0.204-0.652h1.147l-1.156,3.756c0.826-0.494,1.281-1.162,1.674-1.964
			C101.934,100.077,102.153,100.195,102.232,100.289z M98.617,103.196c-0.605,0.149-1.32,0.291-1.32,0.716
			c0,0.181,0.125,0.346,0.377,0.346C98.059,104.258,98.404,103.872,98.617,103.196z M98.963,99.268c-0.559,0-1.1,0.786-1.1,1.47
			c0,0.424,0.227,0.668,0.557,0.668c0.574,0,1.117-0.786,1.117-1.462C99.537,99.487,99.277,99.268,98.963,99.268z"/>
		<path fill="#454545" d="M102.315,98.277h1.147l-0.157,0.511c0.33-0.369,0.7-0.581,1.124-0.581c0.896,0,1.139,0.833,0.88,1.674
			l-0.354,1.155c-0.087,0.267-0.095,0.519,0.142,0.519c0.354,0,0.809-0.605,1.241-1.485c0.149,0.008,0.37,0.126,0.448,0.22
			c-0.543,1.187-1.273,2.066-2.169,2.066c-0.919,0-0.942-0.903-0.739-1.571l0.275-0.872c0.126-0.401,0.078-0.747-0.322-0.747
			c-0.314,0-0.573,0.229-0.801,0.511l-0.794,2.609h-1.147L102.315,98.277z"/>
	</g>
</g>
</svg>
