<?xml version="1.0" encoding="utf-8"?>
<!-- Generator: Adobe Illustrator 16.0.0, SVG Export Plug-In . SVG Version: 6.00 Build 0)  -->
<!DOCTYPE svg PUBLIC "-//W3C//DTD SVG 1.1//EN" "http://www.w3.org/Graphics/SVG/1.1/DTD/svg11.dtd">
<svg version="1.1"
	 id="Capa_1" xmlns:sodipodi="http://sodipodi.sourceforge.net/DTD/sodipodi-0.dtd" xmlns:inkscape="http://www.inkscape.org/namespaces/inkscape" xmlns:svg="http://www.w3.org/2000/svg" xmlns:rdf="http://www.w3.org/1999/02/22-rdf-syntax-ns#" xmlns:cc="http://creativecommons.org/ns#" xmlns:dc="http://purl.org/dc/elements/1.1/"
	 xmlns="http://www.w3.org/2000/svg" xmlns:xlink="http://www.w3.org/1999/xlink" x="0px" y="0px" width="150px" height="150px"
	 viewBox="345.945 222.64 150 150" enable-background="new 345.945 222.64 150 150" xml:space="preserve">
<g>
	<path fill="#2196F3" d="M420.945,241.848l61.582,30.792l-61.582,30.789l-61.583-30.789L420.945,241.848 M420.945,235.14l-75,37.5
		l75,37.498l75-37.498L420.945,235.14L420.945,235.14z"/>
	<path fill="#2196F3" d="M477.195,294.973l5.332,2.666l-61.582,30.792l-61.583-30.792l5.333-2.666l53.566,26.784l2.684,1.342
		l2.684-1.342L477.195,294.973 M477.195,288.266l-56.25,28.125l-56.25-28.125l-18.75,9.374l75,37.501l75-37.501L477.195,288.266
		L477.195,288.266z"/>
	<path fill="#2196F3" d="M477.195,319.976l5.332,2.664l-61.582,30.793l-61.582-30.793l5.332-2.664l53.566,26.781l2.684,1.342
		l2.684-1.342L477.195,319.976 M477.195,313.267l-56.25,28.123l-56.25-28.123l-18.75,9.373l75,37.502l75-37.502L477.195,313.267
		L477.195,313.267z"/>
</g>
</svg>
