<?xml version="1.0" encoding="utf-8"?>
<!-- Generator: Adobe Illustrator 16.0.0, SVG Export Plug-In . SVG Version: 6.00 Build 0)  -->
<!DOCTYPE svg PUBLIC "-//W3C//DTD SVG 1.1//EN" "http://www.w3.org/Graphics/SVG/1.1/DTD/svg11.dtd">
<svg version="1.1" id="Capa_1" xmlns="http://www.w3.org/2000/svg" xmlns:xlink="http://www.w3.org/1999/xlink" x="0px" y="0px"
	 width="675.248px" height="547.225px" viewBox="0 0 675.248 547.225" enable-background="new 0 0 675.248 547.225"
	 xml:space="preserve">
<g>
	<polygon fill="#0091EA" points="123.726,273.613 70,182.407 123.726,91.204 231.188,91.204 284.911,182.407 231.188,273.613 	"/>
	<g>
		<path fill="#FFFFFF" d="M123.412,182.213h-10.517v-24.024h9.348c1.626,0,3.03,0.195,4.21,0.584c1.18,0.39,2.056,0.917,2.629,1.581
			c1.1,1.237,1.65,2.635,1.65,4.193c0,1.879-0.596,3.277-1.787,4.193c-0.436,0.321-0.734,0.521-0.894,0.602
			c-0.161,0.081-0.447,0.212-0.859,0.395c1.489,0.321,2.675,0.992,3.557,2.011c0.882,1.02,1.323,2.286,1.323,3.798
			c0,1.673-0.573,3.15-1.718,4.434C129.002,181.469,126.688,182.213,123.412,182.213z M116.95,168.156h5.156
			c2.933,0,4.399-0.997,4.399-2.99c0-1.146-0.355-1.97-1.065-2.475c-0.71-0.504-1.81-0.756-3.299-0.756h-5.19V168.156z
			 M116.95,178.467h6.358c1.489,0,2.629-0.235,3.42-0.705c0.791-0.469,1.186-1.358,1.186-2.664c0-2.131-1.707-3.196-5.121-3.196
			h-5.843V178.467z"/>
		<path fill="#FFFFFF" d="M146.198,167.537c-1.902,0-3.334,0.619-4.296,1.856s-1.443,2.899-1.443,4.984v7.836h-3.85v-18.284h3.85
			v3.677c0.619-1.146,1.46-2.084,2.526-2.818c1.065-0.733,2.194-1.111,3.386-1.134l0.034,3.883
			C146.335,167.537,146.267,167.537,146.198,167.537z"/>
		<path fill="#FFFFFF" d="M150.494,160.286c-0.481-0.481-0.722-1.054-0.722-1.719c0-0.664,0.241-1.237,0.722-1.718
			c0.481-0.481,1.054-0.722,1.719-0.722c0.664,0,1.237,0.24,1.718,0.722c0.481,0.481,0.722,1.054,0.722,1.718
			c0,0.665-0.241,1.237-0.722,1.719c-0.481,0.481-1.054,0.722-1.718,0.722C151.547,161.007,150.975,160.767,150.494,160.286z
			 M154.103,182.213h-3.85v-18.284h3.85V182.213z"/>
		<path fill="#FFFFFF" d="M176.683,174.755h-14.332c0.091,1.329,0.698,2.4,1.821,3.213c1.123,0.813,2.406,1.22,3.85,1.22
			c2.291,0,4.032-0.722,5.224-2.166l2.199,2.406c-1.971,2.04-4.537,3.059-7.698,3.059c-2.566,0-4.749-0.853-6.547-2.561
			c-1.799-1.707-2.698-3.998-2.698-6.874s0.916-5.161,2.75-6.857c1.833-1.695,3.992-2.543,6.479-2.543c2.486,0,4.6,0.75,6.341,2.251
			c1.741,1.501,2.612,3.569,2.612,6.204V174.755z M162.351,171.73h10.482c0-1.535-0.481-2.715-1.443-3.54
			c-0.962-0.825-2.148-1.237-3.558-1.237c-1.409,0-2.675,0.43-3.797,1.289C162.912,169.101,162.351,170.264,162.351,171.73z"/>
		<path fill="#FFFFFF" d="M185.516,162.417v1.512h4.812v3.093h-4.812v15.191h-3.85v-15.191h-2.302v-3.093h2.302v-1.409
			c0-1.925,0.579-3.454,1.736-4.588c1.157-1.134,2.555-1.701,4.193-1.701s3.133,0.607,4.485,1.821l-1.581,2.715
			c-0.756-0.802-1.546-1.203-2.372-1.203c-0.825,0-1.466,0.257-1.924,0.773C185.744,160.853,185.516,161.546,185.516,162.417z"/>
		<path fill="#FFFFFF" d="M194.279,160.286c-0.481-0.481-0.722-1.054-0.722-1.719c0-0.664,0.241-1.237,0.722-1.718
			c0.481-0.481,1.054-0.722,1.719-0.722c0.664,0,1.237,0.24,1.718,0.722c0.481,0.481,0.722,1.054,0.722,1.718
			c0,0.665-0.241,1.237-0.722,1.719c-0.481,0.481-1.054,0.722-1.718,0.722C195.333,161.007,194.76,160.767,194.279,160.286z
			 M197.888,182.213h-3.85v-18.284h3.85V182.213z"/>
		<path fill="#FFFFFF" d="M207.305,172.314v9.898h-3.85v-18.284h3.85v3.333c0.619-1.122,1.472-2.004,2.561-2.646
			c1.088-0.641,2.262-0.962,3.522-0.962c2.063,0,3.729,0.63,5.001,1.89c1.271,1.26,1.907,3.082,1.907,5.465v11.204h-3.849v-10.036
			c0-3.368-1.398-5.052-4.193-5.052c-1.329,0-2.486,0.441-3.472,1.323C207.797,169.331,207.305,170.619,207.305,172.314z"/>
		<path fill="#FFFFFF" d="M242.567,163.929v15.947c0,3.23-0.876,5.653-2.629,7.269c-1.752,1.615-4.004,2.423-6.753,2.423
			s-5.236-0.859-7.458-2.578l1.822-2.921c1.787,1.352,3.591,2.028,5.413,2.028c1.821,0,3.265-0.47,4.331-1.409
			c1.065-0.94,1.598-2.44,1.598-4.502v-2.337c-0.573,1.077-1.392,1.937-2.458,2.578c-1.065,0.642-2.263,0.962-3.592,0.962
			c-2.429,0-4.422-0.848-5.98-2.543c-1.559-1.695-2.337-3.803-2.337-6.324s0.778-4.628,2.337-6.324
			c1.558-1.695,3.545-2.543,5.963-2.543c2.417,0,4.382,0.997,5.895,2.99v-2.715H242.567z M228.304,172.366
			c0,1.501,0.464,2.796,1.392,3.884c0.928,1.088,2.176,1.632,3.746,1.632c1.569,0,2.841-0.527,3.815-1.581
			c0.974-1.054,1.461-2.365,1.461-3.935c0-1.569-0.493-2.898-1.478-3.987c-0.985-1.088-2.257-1.632-3.815-1.632
			c-1.559,0-2.801,0.562-3.729,1.684C228.768,169.554,228.304,170.866,228.304,172.366z"/>
		<path fill="#FFFFFF" d="M111.839,202.272h-8.51c0.054,0.789,0.415,1.425,1.082,1.908s1.429,0.724,2.286,0.724
			c1.36,0,2.394-0.428,3.102-1.286l1.306,1.429c-1.17,1.211-2.694,1.816-4.571,1.816c-1.523,0-2.819-0.506-3.887-1.52
			c-1.068-1.013-1.602-2.374-1.602-4.082c0-1.707,0.544-3.064,1.633-4.071c1.088-1.007,2.37-1.51,3.847-1.51
			c1.476,0,2.731,0.446,3.765,1.336c1.034,0.892,1.551,2.119,1.551,3.684V202.272z M103.33,200.477h6.224
			c0-0.911-0.286-1.612-0.857-2.102c-0.572-0.49-1.276-0.735-2.112-0.735c-0.837,0-1.588,0.255-2.255,0.765
			C103.663,198.916,103.33,199.606,103.33,200.477z"/>
		<path fill="#FFFFFF" d="M120.083,193.681c-0.286-0.286-0.429-0.625-0.429-1.02s0.143-0.735,0.429-1.021s0.625-0.429,1.02-0.429
			s0.735,0.143,1.021,0.429s0.429,0.626,0.429,1.021s-0.143,0.734-0.429,1.02s-0.626,0.429-1.021,0.429
			S120.369,193.967,120.083,193.681z M122.226,206.701h-2.286v-10.856h2.286V206.701z"/>
		<path fill="#FFFFFF" d="M127.817,200.824v5.877h-2.286v-10.856h2.286v1.979c0.367-0.667,0.874-1.19,1.521-1.571
			c0.646-0.381,1.343-0.571,2.091-0.571c1.225,0,2.214,0.375,2.969,1.123s1.133,1.83,1.133,3.245v6.652h-2.286v-5.958
			c0-2-0.83-3-2.49-3c-0.789,0-1.476,0.262-2.061,0.786C128.109,199.052,127.817,199.817,127.817,200.824z"/>
		<path fill="#FFFFFF" d="M141.469,206.701l-4.367-10.856h2.367l3.306,8.204l3.306-8.204h2.367l-4.367,10.856H141.469z"/>
		<path fill="#FFFFFF" d="M160.365,202.272h-8.51c0.054,0.789,0.415,1.425,1.082,1.908s1.429,0.724,2.286,0.724
			c1.36,0,2.394-0.428,3.102-1.286l1.306,1.429c-1.17,1.211-2.694,1.816-4.571,1.816c-1.523,0-2.819-0.506-3.887-1.52
			c-1.068-1.013-1.602-2.374-1.602-4.082c0-1.707,0.544-3.064,1.633-4.071c1.088-1.007,2.37-1.51,3.847-1.51
			c1.476,0,2.731,0.446,3.765,1.336c1.034,0.892,1.551,2.119,1.551,3.684V202.272z M151.855,200.477h6.224
			c0-0.911-0.286-1.612-0.857-2.102c-0.572-0.49-1.276-0.735-2.112-0.735c-0.837,0-1.588,0.255-2.255,0.765
			C152.188,198.916,151.855,199.606,151.855,200.477z"/>
		<path fill="#FFFFFF" d="M170.609,203.456c0,1.034-0.375,1.86-1.123,2.479c-0.749,0.619-1.708,0.928-2.877,0.928
			c-0.789,0-1.609-0.143-2.459-0.428s-1.602-0.687-2.255-1.204l1.102-1.775c1.265,0.953,2.49,1.428,3.673,1.428
			c0.517,0,0.925-0.119,1.224-0.357c0.299-0.238,0.449-0.541,0.449-0.908c0-0.544-0.721-1.034-2.163-1.469
			c-0.109-0.041-0.191-0.068-0.245-0.082c-2.258-0.612-3.387-1.632-3.387-3.061c0-1.006,0.391-1.813,1.173-2.418
			c0.782-0.605,1.799-0.908,3.051-0.908c1.251,0,2.435,0.367,3.551,1.102l-0.857,1.694c-0.884-0.585-1.843-0.878-2.877-0.878
			c-0.544,0-0.986,0.099-1.326,0.296c-0.34,0.198-0.51,0.494-0.51,0.888c0,0.354,0.177,0.612,0.531,0.776
			c0.245,0.122,0.588,0.238,1.03,0.347s0.833,0.218,1.173,0.327s0.67,0.231,0.99,0.367c0.32,0.136,0.664,0.327,1.031,0.571
			C170.242,201.66,170.609,202.422,170.609,203.456z"/>
		<path fill="#FFFFFF" d="M176.017,197.681v5.51c0,0.517,0.136,0.928,0.408,1.234s0.653,0.459,1.143,0.459s0.959-0.238,1.408-0.714
			l0.938,1.612c-0.803,0.721-1.69,1.082-2.663,1.082s-1.803-0.336-2.49-1.01c-0.687-0.674-1.03-1.582-1.03-2.725v-5.448h-1.367
			v-1.837h1.367v-3.408h2.286v3.408h2.857v1.837H176.017z"/>
		<path fill="#FFFFFF" d="M181.874,193.681c-0.286-0.286-0.429-0.625-0.429-1.02s0.143-0.735,0.429-1.021s0.625-0.429,1.02-0.429
			s0.735,0.143,1.021,0.429s0.429,0.626,0.429,1.021s-0.143,0.734-0.429,1.02s-0.626,0.429-1.021,0.429
			S182.159,193.967,181.874,193.681z M184.016,206.701h-2.286v-10.856h2.286V206.701z"/>
		<path fill="#FFFFFF" d="M197.362,195.844v9.469c0,1.918-0.52,3.357-1.561,4.316c-1.041,0.959-2.377,1.439-4.01,1.439
			c-1.633,0-3.109-0.51-4.428-1.531l1.082-1.734c1.061,0.802,2.132,1.204,3.214,1.204s1.938-0.279,2.571-0.837
			c0.633-0.558,0.949-1.449,0.949-2.673v-1.388c-0.34,0.64-0.826,1.15-1.459,1.531c-0.632,0.381-1.344,0.571-2.132,0.571
			c-1.442,0-2.626-0.503-3.551-1.51c-0.925-1.006-1.388-2.258-1.388-3.755c0-1.496,0.462-2.748,1.388-3.754
			c0.925-1.007,2.105-1.51,3.541-1.51c1.435,0,2.602,0.592,3.5,1.775v-1.612H197.362z M188.893,200.854
			c0,0.892,0.275,1.66,0.827,2.306c0.551,0.646,1.292,0.969,2.224,0.969s1.687-0.313,2.265-0.938s0.867-1.405,0.867-2.337
			c0-0.932-0.292-1.721-0.877-2.367c-0.585-0.646-1.34-0.969-2.265-0.969s-1.663,0.333-2.214,1
			C189.168,199.185,188.893,199.963,188.893,200.854z"/>
		<path fill="#FFFFFF" d="M209.463,206.701h-2.082v-1.449c-0.898,1.075-2.102,1.612-3.612,1.612c-1.129,0-2.065-0.319-2.806-0.959
			c-0.742-0.639-1.112-1.493-1.112-2.561c0-1.068,0.394-1.867,1.183-2.398c0.789-0.53,1.857-0.795,3.204-0.795h2.959v-0.408
			c0-1.442-0.803-2.163-2.408-2.163c-1.007,0-2.054,0.367-3.143,1.102l-1.02-1.428c1.319-1.047,2.816-1.571,4.489-1.571
			c1.279,0,2.323,0.323,3.132,0.969c0.81,0.646,1.214,1.663,1.214,3.051V206.701z M207.177,202.66v-0.918h-2.571
			c-1.646,0-2.469,0.518-2.469,1.551c0,0.53,0.204,0.936,0.612,1.214c0.408,0.279,0.976,0.418,1.704,0.418
			c0.728,0,1.364-0.204,1.908-0.612S207.177,203.354,207.177,202.66z"/>
		<path fill="#FFFFFF" d="M217.462,206.864c-1.51,0-2.809-0.513-3.897-1.541c-1.088-1.027-1.633-2.37-1.633-4.03
			c0-1.66,0.568-3.01,1.704-4.051c1.136-1.041,2.521-1.561,4.153-1.561s3.013,0.564,4.143,1.694l-1.347,1.653
			c-0.939-0.816-1.885-1.225-2.837-1.225s-1.779,0.316-2.479,0.949c-0.701,0.632-1.051,1.449-1.051,2.449s0.347,1.847,1.041,2.541
			s1.547,1.041,2.561,1.041c1.013,0,1.969-0.462,2.867-1.387l1.347,1.469C220.713,206.198,219.189,206.864,217.462,206.864z"/>
		<path fill="#FFFFFF" d="M224.543,193.681c-0.286-0.286-0.429-0.625-0.429-1.02s0.143-0.735,0.429-1.021s0.625-0.429,1.02-0.429
			s0.735,0.143,1.021,0.429s0.429,0.626,0.429,1.021s-0.143,0.734-0.429,1.02s-0.626,0.429-1.021,0.429
			S224.829,193.967,224.543,193.681z M226.686,206.701H224.4v-10.856h2.286V206.701z"/>
		<path fill="#FFFFFF" d="M239.072,205.242c-1.088,1.082-2.449,1.622-4.082,1.622c-1.632,0-2.993-0.541-4.081-1.622
			s-1.633-2.405-1.633-3.969s0.544-2.888,1.633-3.969s2.449-1.622,4.081-1.622c1.633,0,2.993,0.541,4.082,1.622
			s1.632,2.405,1.632,3.969S240.161,204.16,239.072,205.242z M232.532,203.833c0.646,0.66,1.466,0.99,2.459,0.99
			s1.813-0.33,2.459-0.99c0.646-0.66,0.97-1.513,0.97-2.561c0-1.047-0.324-1.901-0.97-2.561c-0.646-0.66-1.466-0.99-2.459-0.99
			s-1.813,0.33-2.459,0.99c-0.646,0.66-0.969,1.514-0.969,2.561C231.563,202.32,231.886,203.174,232.532,203.833z M236.032,194.457
			h-2.082l2.163-2.959l2.408,1L236.032,194.457z"/>
		<path fill="#FFFFFF" d="M245.582,200.824v5.877h-2.286v-10.856h2.286v1.979c0.367-0.667,0.874-1.19,1.521-1.571
			c0.646-0.381,1.343-0.571,2.091-0.571c1.225,0,2.214,0.375,2.969,1.123s1.133,1.83,1.133,3.245v6.652h-2.286v-5.958
			c0-2-0.83-3-2.49-3c-0.789,0-1.476,0.262-2.061,0.786C245.874,199.052,245.582,199.817,245.582,200.824z"/>
	</g>
</g>
<g>
	<polygon fill="#1ADFFA" points="283.895,182.409 230.168,91.203 283.895,0 391.357,0 445.08,91.203 391.357,182.409 	"/>
	<g>
		<path fill="#FFFFFF" d="M267.141,73.979c1.314,1.098,1.971,2.79,1.971,5.075c0,2.286-0.671,3.961-2.012,5.022
			c-1.341,1.063-3.397,1.593-6.169,1.593h-3.348v5.535h-3.186V72.331h6.48C263.739,72.331,265.827,72.881,267.141,73.979z
			 M264.887,81.768c0.639-0.675,0.958-1.665,0.958-2.97s-0.405-2.228-1.215-2.768s-2.079-0.811-3.807-0.811h-3.24v7.561h3.699
			C263.046,82.78,264.248,82.442,264.887,81.768z"/>
		<path fill="#FFFFFF" d="M279.966,79.675c-1.495,0-2.619,0.486-3.375,1.458c-0.756,0.973-1.134,2.277-1.134,3.915v6.156h-3.024
			V76.84h3.024v2.89c0.486-0.9,1.147-1.638,1.984-2.215c0.837-0.575,1.724-0.872,2.66-0.891l0.027,3.051
			C280.074,79.675,280.02,79.675,279.966,79.675z"/>
		<path fill="#FFFFFF" d="M296.517,85.345h-11.259c0.072,1.045,0.549,1.886,1.431,2.524c0.882,0.64,1.89,0.959,3.024,0.959
			c1.8,0,3.168-0.567,4.104-1.701l1.728,1.891c-1.548,1.602-3.564,2.402-6.048,2.402c-2.017,0-3.731-0.67-5.144-2.012
			c-1.414-1.34-2.12-3.141-2.12-5.399s0.72-4.055,2.16-5.387c1.439-1.332,3.136-1.998,5.089-1.998c1.953,0,3.613,0.59,4.981,1.769
			c1.368,1.179,2.052,2.804,2.052,4.873V85.345z M285.258,82.969h8.235c0-1.205-0.378-2.133-1.134-2.78
			c-0.756-0.648-1.688-0.973-2.794-0.973s-2.102,0.338-2.983,1.013C285.699,80.903,285.258,81.817,285.258,82.969z"/>
		<path fill="#FFFFFF" d="M310.071,86.911c0,1.368-0.495,2.462-1.485,3.28c-0.99,0.819-2.259,1.229-3.807,1.229
			c-1.044,0-2.129-0.188-3.253-0.566c-1.125-0.378-2.12-0.909-2.983-1.594L300,86.911c1.674,1.26,3.294,1.89,4.86,1.89
			c0.684,0,1.224-0.157,1.62-0.473c0.396-0.314,0.594-0.715,0.594-1.201c0-0.72-0.954-1.367-2.862-1.944
			c-0.145-0.054-0.252-0.09-0.324-0.107c-2.988-0.811-4.482-2.16-4.482-4.05c0-1.332,0.518-2.398,1.553-3.2
			c1.035-0.801,2.38-1.201,4.037-1.201c1.656,0,3.222,0.486,4.698,1.458l-1.134,2.241c-1.17-0.773-2.439-1.161-3.807-1.161
			c-0.72,0-1.305,0.131-1.755,0.392c-0.45,0.261-0.675,0.652-0.675,1.175c0,0.468,0.234,0.81,0.702,1.025
			c0.324,0.162,0.778,0.315,1.363,0.459c0.585,0.145,1.103,0.288,1.553,0.433c0.45,0.144,0.886,0.306,1.31,0.485
			c0.422,0.181,0.877,0.433,1.363,0.756C309.585,84.535,310.071,85.543,310.071,86.911z"/>
		<path fill="#FFFFFF" d="M323.543,84.616V76.84h3.024v14.364h-3.024v-2.619c-0.486,0.882-1.157,1.575-2.011,2.079
			c-0.855,0.504-1.778,0.756-2.768,0.756c-1.62,0-2.93-0.495-3.929-1.484c-0.999-0.99-1.499-2.421-1.499-4.293V76.84h3.024v7.884
			c0,2.646,1.098,3.97,3.294,3.97c1.044,0,1.953-0.347,2.727-1.04C323.156,86.961,323.543,85.948,323.543,84.616z"/>
		<path fill="#FFFFFF" d="M338.636,76.624c1.926,0,3.574,0.666,4.941,1.998c1.368,1.332,2.053,3.105,2.053,5.319
			s-0.68,4.014-2.039,5.399c-1.359,1.387-2.943,2.079-4.752,2.079c-1.809,0-3.434-0.792-4.874-2.376v7.398h-3.024V76.84h3.024v2.512
			C335.153,77.533,336.71,76.624,338.636,76.624z M333.912,84.049c0,1.368,0.414,2.489,1.242,3.361
			c0.828,0.874,1.836,1.31,3.023,1.31c1.188,0,2.224-0.432,3.105-1.296c0.882-0.863,1.323-1.984,1.323-3.361
			s-0.433-2.52-1.296-3.429c-0.864-0.909-1.899-1.363-3.105-1.363s-2.223,0.454-3.051,1.363
			C334.325,81.543,333.912,82.682,333.912,84.049z"/>
		<path fill="#FFFFFF" d="M359.13,84.616V76.84h3.023v14.364h-3.023v-2.619c-0.486,0.882-1.157,1.575-2.012,2.079
			c-0.855,0.504-1.777,0.756-2.768,0.756c-1.62,0-2.93-0.495-3.929-1.484c-0.999-0.99-1.499-2.421-1.499-4.293V76.84h3.024v7.884
			c0,2.646,1.098,3.97,3.294,3.97c1.044,0,1.953-0.347,2.727-1.04C358.742,86.961,359.13,85.948,359.13,84.616z"/>
		<path fill="#FFFFFF" d="M379.892,85.345h-11.258c0.071,1.045,0.549,1.886,1.431,2.524c0.882,0.64,1.89,0.959,3.024,0.959
			c1.799,0,3.168-0.567,4.104-1.701l1.729,1.891c-1.549,1.602-3.564,2.402-6.049,2.402c-2.016,0-3.73-0.67-5.143-2.012
			c-1.414-1.34-2.12-3.141-2.12-5.399s0.72-4.055,2.16-5.387c1.439-1.332,3.136-1.998,5.089-1.998s3.613,0.59,4.982,1.769
			c1.367,1.179,2.051,2.804,2.051,4.873V85.345z M368.634,82.969h8.234c0-1.205-0.378-2.133-1.134-2.78
			c-0.756-0.648-1.688-0.973-2.794-0.973c-1.107,0-2.103,0.338-2.984,1.013S368.634,81.817,368.634,82.969z"/>
		<path fill="#FFFFFF" d="M393.446,86.911c0,1.368-0.495,2.462-1.484,3.28c-0.99,0.819-2.26,1.229-3.808,1.229
			c-1.044,0-2.129-0.188-3.253-0.566c-1.125-0.378-2.12-0.909-2.984-1.594l1.459-2.349c1.674,1.26,3.293,1.89,4.859,1.89
			c0.684,0,1.224-0.157,1.62-0.473c0.396-0.314,0.594-0.715,0.594-1.201c0-0.72-0.954-1.367-2.862-1.944
			c-0.145-0.054-0.252-0.09-0.324-0.107c-2.987-0.811-4.481-2.16-4.481-4.05c0-1.332,0.518-2.398,1.553-3.2
			c1.034-0.801,2.38-1.201,4.036-1.201s3.223,0.486,4.698,1.458l-1.134,2.241c-1.17-0.773-2.439-1.161-3.807-1.161
			c-0.721,0-1.306,0.131-1.756,0.392c-0.449,0.261-0.675,0.652-0.675,1.175c0,0.468,0.233,0.81,0.702,1.025
			c0.324,0.162,0.778,0.315,1.363,0.459c0.585,0.145,1.103,0.288,1.553,0.433c0.449,0.144,0.887,0.306,1.31,0.485
			c0.423,0.181,0.878,0.433,1.363,0.756C392.96,84.535,393.446,85.543,393.446,86.911z"/>
		<path fill="#FFFFFF" d="M400.601,79.271v7.29c0,0.684,0.18,1.229,0.541,1.633c0.359,0.405,0.863,0.607,1.512,0.607
			c0.647,0,1.269-0.314,1.863-0.944l1.241,2.133c-1.062,0.954-2.237,1.431-3.523,1.431c-1.287,0-2.386-0.445-3.294-1.336
			c-0.909-0.892-1.363-2.093-1.363-3.604v-7.209h-1.809V76.84h1.809v-4.509h3.023v4.509h3.78v2.431H400.601z"/>
		<path fill="#FFFFFF" d="M420.068,89.273c-1.44,1.432-3.24,2.146-5.4,2.146c-2.159,0-3.96-0.715-5.399-2.146
			c-1.44-1.431-2.16-3.182-2.16-5.251c0-2.07,0.72-3.821,2.16-5.252c1.439-1.431,3.24-2.146,5.399-2.146
			c2.16,0,3.96,0.716,5.4,2.146s2.159,3.182,2.159,5.252C422.228,86.092,421.509,87.843,420.068,89.273z M411.415,87.41
			c0.854,0.874,1.939,1.31,3.253,1.31s2.398-0.436,3.254-1.31c0.854-0.872,1.282-2.002,1.282-3.388s-0.428-2.516-1.282-3.389
			c-0.855-0.873-1.94-1.31-3.254-1.31s-2.398,0.437-3.253,1.31c-0.855,0.873-1.283,2.003-1.283,3.389S410.56,86.538,411.415,87.41z"
			/>
		<path fill="#FFFFFF" d="M263.687,118.032c-0.925,0-1.761-0.336-2.508-1.007l0.969-1.729c0.443,0.418,0.902,0.627,1.377,0.627
			s0.861-0.171,1.159-0.513c0.297-0.342,0.446-0.716,0.446-1.121c0-0.178-1.362-3.642-4.085-10.394h2.28l3.021,7.448l3.021-7.448
			h2.28l-4.902,12.009c-0.292,0.658-0.709,1.178-1.254,1.558C264.947,117.842,264.346,118.032,263.687,118.032z"/>
		<path fill="#FFFFFF" d="M287.93,109.881h-7.923c0.05,0.734,0.386,1.327,1.007,1.776c0.621,0.45,1.33,0.675,2.128,0.675
			c1.267,0,2.229-0.399,2.888-1.197l1.216,1.33c-1.089,1.128-2.508,1.691-4.256,1.691c-1.418,0-2.625-0.472-3.62-1.416
			c-0.994-0.943-1.491-2.21-1.491-3.8s0.506-2.853,1.52-3.79c1.013-0.938,2.207-1.406,3.582-1.406c1.374,0,2.542,0.415,3.505,1.244
			c0.962,0.83,1.444,1.974,1.444,3.43V109.881z M280.007,108.209h5.795c0-0.849-0.266-1.501-0.798-1.957
			c-0.532-0.456-1.188-0.684-1.967-0.684c-0.779,0-1.479,0.237-2.099,0.712C280.317,106.756,280.007,107.398,280.007,108.209z"/>
		<path fill="#FFFFFF" d="M297.469,110.982c0,0.963-0.349,1.732-1.045,2.309c-0.697,0.577-1.589,0.865-2.679,0.865
			c-0.735,0-1.498-0.134-2.29-0.399c-0.792-0.266-1.492-0.64-2.1-1.121l1.026-1.653c1.178,0.888,2.318,1.33,3.42,1.33
			c0.481,0,0.861-0.11,1.14-0.332s0.418-0.504,0.418-0.846c0-0.506-0.671-0.962-2.014-1.368c-0.102-0.038-0.178-0.063-0.228-0.076
			c-2.103-0.569-3.154-1.52-3.154-2.85c0-0.938,0.364-1.688,1.093-2.251c0.728-0.563,1.675-0.846,2.84-0.846
			c1.165,0,2.267,0.342,3.306,1.025l-0.798,1.577c-0.823-0.544-1.716-0.816-2.679-0.816c-0.507,0-0.918,0.092-1.235,0.275
			c-0.317,0.184-0.475,0.459-0.475,0.826c0,0.33,0.165,0.57,0.494,0.722c0.228,0.114,0.548,0.222,0.96,0.323
			c0.411,0.102,0.775,0.203,1.092,0.304c0.316,0.102,0.624,0.216,0.921,0.343c0.297,0.126,0.618,0.304,0.959,0.531
			C297.126,109.311,297.469,110.021,297.469,110.982z"/>
		<path fill="#FFFFFF" d="M305.296,103.744c1.355,0,2.514,0.469,3.477,1.406c0.962,0.938,1.444,2.185,1.444,3.742
			c0,1.559-0.478,2.825-1.435,3.801c-0.957,0.975-2.071,1.463-3.344,1.463s-2.417-0.558-3.43-1.672v5.205h-2.128v-13.794h2.128
			v1.768C302.845,104.384,303.941,103.744,305.296,103.744z M301.971,108.969c0,0.963,0.292,1.751,0.874,2.365
			c0.583,0.615,1.292,0.922,2.128,0.922s1.564-0.304,2.185-0.912c0.621-0.607,0.931-1.396,0.931-2.365s-0.304-1.773-0.912-2.413
			s-1.336-0.96-2.185-0.96s-1.564,0.32-2.147,0.96S301.971,108.007,301.971,108.969z"/>
		<path fill="#FFFFFF" d="M322.054,109.881h-7.923c0.05,0.734,0.386,1.327,1.007,1.776c0.621,0.45,1.33,0.675,2.128,0.675
			c1.267,0,2.229-0.399,2.888-1.197l1.216,1.33c-1.089,1.128-2.508,1.691-4.256,1.691c-1.418,0-2.625-0.472-3.62-1.416
			c-0.994-0.943-1.491-2.21-1.491-3.8s0.506-2.853,1.52-3.79c1.013-0.938,2.207-1.406,3.582-1.406c1.374,0,2.542,0.415,3.505,1.244
			c0.962,0.83,1.444,1.974,1.444,3.43V109.881z M314.131,108.209h5.795c0-0.849-0.266-1.501-0.798-1.957
			c-0.532-0.456-1.188-0.684-1.967-0.684c-0.779,0-1.479,0.237-2.099,0.712C314.441,106.756,314.131,107.398,314.131,108.209z"/>
		<path fill="#FFFFFF" d="M328.875,114.156c-1.406,0-2.616-0.479-3.629-1.435c-1.014-0.956-1.52-2.207-1.52-3.753
			c0-1.545,0.529-2.803,1.586-3.771s2.347-1.453,3.867-1.453s2.805,0.525,3.857,1.577l-1.254,1.539
			c-0.874-0.761-1.755-1.141-2.641-1.141c-0.887,0-1.656,0.295-2.309,0.884s-0.979,1.349-0.979,2.28
			c0,0.931,0.323,1.719,0.969,2.365c0.646,0.646,1.44,0.969,2.384,0.969c0.943,0,1.833-0.431,2.669-1.292l1.254,1.368
			C331.902,113.535,330.483,114.156,328.875,114.156z"/>
		<path fill="#FFFFFF" d="M335.468,101.882c-0.266-0.266-0.399-0.582-0.399-0.95c0-0.367,0.133-0.684,0.399-0.95
			c0.266-0.266,0.583-0.398,0.95-0.398c0.367,0,0.684,0.133,0.95,0.398c0.266,0.267,0.399,0.583,0.399,0.95
			c0,0.368-0.133,0.685-0.399,0.95c-0.266,0.266-0.583,0.399-0.95,0.399C336.05,102.281,335.734,102.147,335.468,101.882z
			 M337.463,114.004h-2.128v-10.108h2.128V114.004z"/>
		<path fill="#FFFFFF" d="M343.163,103.06v0.836h2.66v1.71h-2.66v8.398h-2.128v-8.398h-1.273v-1.71h1.273v-0.778
			c0-1.064,0.319-1.91,0.96-2.537c0.639-0.627,1.412-0.94,2.317-0.94s1.731,0.336,2.479,1.007l-0.874,1.501
			c-0.418-0.442-0.854-0.665-1.312-0.665c-0.455,0-0.811,0.143-1.063,0.428S343.163,102.579,343.163,103.06z"/>
		<path fill="#FFFFFF" d="M348.007,101.882c-0.266-0.266-0.398-0.582-0.398-0.95c0-0.367,0.133-0.684,0.398-0.95
			c0.267-0.266,0.583-0.398,0.951-0.398c0.367,0,0.684,0.133,0.949,0.398c0.266,0.267,0.399,0.583,0.399,0.95
			c0,0.368-0.134,0.685-0.399,0.95s-0.582,0.399-0.949,0.399C348.59,102.281,348.273,102.147,348.007,101.882z M350.003,114.004
			h-2.129v-10.108h2.129V114.004z"/>
		<path fill="#FFFFFF" d="M357.564,114.156c-1.405,0-2.616-0.479-3.629-1.435c-1.014-0.956-1.521-2.207-1.521-3.753
			c0-1.545,0.529-2.803,1.587-3.771s2.347-1.453,3.866-1.453c1.521,0,2.806,0.525,3.857,1.577l-1.254,1.539
			c-0.874-0.761-1.755-1.141-2.641-1.141c-0.887,0-1.656,0.295-2.309,0.884s-0.979,1.349-0.979,2.28
			c0,0.931,0.322,1.719,0.969,2.365c0.646,0.646,1.44,0.969,2.385,0.969c0.943,0,1.833-0.431,2.669-1.292l1.254,1.368
			C360.592,113.535,359.173,114.156,357.564,114.156z"/>
		<path fill="#FFFFFF" d="M372.138,114.004h-1.938v-1.349c-0.836,1-1.957,1.501-3.363,1.501c-1.052,0-1.922-0.298-2.612-0.894
			c-0.69-0.595-1.035-1.39-1.035-2.385c0-0.994,0.367-1.738,1.102-2.232c0.734-0.493,1.729-0.74,2.982-0.74h2.756v-0.38
			c0-1.343-0.748-2.015-2.242-2.015c-0.938,0-1.912,0.342-2.926,1.026l-0.95-1.33c1.229-0.976,2.622-1.463,4.181-1.463
			c1.189,0,2.162,0.301,2.916,0.902s1.131,1.549,1.131,2.841V114.004z M370.009,110.242v-0.855h-2.394
			c-1.532,0-2.299,0.481-2.299,1.444c0,0.494,0.19,0.871,0.569,1.13c0.381,0.26,0.909,0.39,1.587,0.39s1.27-0.189,1.776-0.569
			S370.009,110.888,370.009,110.242z"/>
		<path fill="#FFFFFF" d="M379.585,114.156c-1.406,0-2.615-0.479-3.629-1.435s-1.52-2.207-1.52-3.753
			c0-1.545,0.528-2.803,1.586-3.771s2.347-1.453,3.867-1.453c1.52,0,2.805,0.525,3.856,1.577l-1.254,1.539
			c-0.874-0.761-1.755-1.141-2.642-1.141s-1.656,0.295-2.309,0.884s-0.979,1.349-0.979,2.28c0,0.931,0.324,1.719,0.97,2.365
			c0.646,0.646,1.44,0.969,2.384,0.969s1.834-0.431,2.67-1.292l1.254,1.368C382.612,113.535,381.193,114.156,379.585,114.156z"/>
		<path fill="#FFFFFF" d="M386.178,101.882c-0.267-0.266-0.399-0.582-0.399-0.95c0-0.367,0.133-0.684,0.399-0.95
			c0.267-0.266,0.583-0.398,0.95-0.398s0.684,0.133,0.949,0.398c0.267,0.267,0.4,0.583,0.4,0.95c0,0.368-0.134,0.685-0.4,0.95
			c-0.266,0.266-0.582,0.399-0.949,0.399S386.444,102.147,386.178,101.882z M388.173,114.004h-2.128v-10.108h2.128V114.004z"/>
		<path fill="#FFFFFF" d="M399.706,112.646c-1.014,1.007-2.281,1.511-3.801,1.511s-2.787-0.504-3.8-1.511
			c-1.014-1.007-1.521-2.239-1.521-3.695c0-1.457,0.507-2.688,1.521-3.695c1.013-1.008,2.28-1.511,3.8-1.511
			s2.787,0.503,3.801,1.511c1.013,1.007,1.52,2.238,1.52,3.695C401.226,110.406,400.719,111.639,399.706,112.646z M393.616,111.334
			c0.602,0.615,1.364,0.922,2.289,0.922s1.688-0.307,2.289-0.922c0.602-0.614,0.903-1.408,0.903-2.384s-0.302-1.771-0.903-2.385
			s-1.364-0.922-2.289-0.922s-1.688,0.308-2.289,0.922s-0.902,1.409-0.902,2.385S393.015,110.72,393.616,111.334z M396.874,102.604
			h-1.938l2.014-2.755l2.242,0.932L396.874,102.604z"/>
		<path fill="#FFFFFF" d="M405.767,108.532v5.472h-2.129v-10.108h2.129v1.844c0.342-0.621,0.813-1.108,1.415-1.463
			s1.251-0.532,1.947-0.532c1.14,0,2.062,0.349,2.765,1.045s1.055,1.703,1.055,3.021v6.194h-2.128v-5.548
			c0-1.862-0.772-2.793-2.318-2.793c-0.734,0-1.374,0.244-1.919,0.731S405.767,107.595,405.767,108.532z"/>
	</g>
</g>
<g>
	<polygon fill="#00FFFF" points="445.063,273.613 391.336,182.407 445.063,91.205 552.525,91.205 606.248,182.407 552.525,273.613 	
		"/>
	<g>
		<path fill="#FFFFFF" d="M456.656,159.377c2.55,2.309,3.824,5.521,3.824,9.635c0,4.114-1.237,7.37-3.71,9.768
			c-2.474,2.398-6.26,3.597-11.357,3.597h-8.784v-26.463h9.087C450.46,155.913,454.107,157.068,456.656,159.377z M455.976,169.126
			c0-6.058-3.471-9.086-10.411-9.086h-4.468v18.135h4.96c3.204,0,5.659-0.763,7.363-2.291
			C455.123,174.357,455.976,172.104,455.976,169.126z"/>
		<path fill="#FFFFFF" d="M465.895,158.223c-0.53-0.53-0.796-1.161-0.796-1.893c0-0.732,0.266-1.363,0.796-1.893
			c0.529-0.53,1.16-0.795,1.893-0.795c0.731,0,1.363,0.265,1.893,0.795c0.53,0.53,0.795,1.161,0.795,1.893
			c0,0.732-0.265,1.363-0.795,1.893c-0.529,0.53-1.161,0.795-1.893,0.795C467.055,159.018,466.424,158.752,465.895,158.223z
			 M469.869,182.376h-4.24v-20.141h4.24V182.376z"/>
		<path fill="#FFFFFF" d="M490.351,176.357c0,1.918-0.694,3.452-2.082,4.6c-1.389,1.149-3.168,1.723-5.338,1.723
			c-1.465,0-2.985-0.265-4.563-0.795c-1.577-0.53-2.972-1.274-4.184-2.234l2.045-3.293c2.347,1.767,4.618,2.65,6.814,2.65
			c0.959,0,1.716-0.22,2.271-0.662c0.555-0.441,0.833-1.003,0.833-1.685c0-1.009-1.338-1.917-4.014-2.726
			c-0.202-0.076-0.354-0.126-0.454-0.151c-4.189-1.136-6.284-3.029-6.284-5.679c0-1.867,0.726-3.363,2.177-4.486
			c1.451-1.123,3.338-1.685,5.66-1.685c2.321,0,4.518,0.682,6.587,2.044l-1.59,3.142c-1.641-1.084-3.42-1.628-5.338-1.628
			c-1.01,0-1.83,0.184-2.461,0.549c-0.631,0.366-0.946,0.915-0.946,1.646c0,0.657,0.327,1.136,0.984,1.439
			c0.454,0.227,1.091,0.442,1.911,0.644c0.82,0.202,1.546,0.404,2.178,0.605c0.63,0.203,1.242,0.43,1.836,0.682
			c0.593,0.252,1.23,0.606,1.912,1.06C489.669,173.025,490.351,174.439,490.351,176.357z"/>
		<path fill="#FFFFFF" d="M513.898,174.161h-15.787c0.101,1.464,0.77,2.644,2.007,3.54c1.236,0.896,2.649,1.344,4.24,1.344
			c2.523,0,4.441-0.795,5.754-2.385l2.423,2.65c-2.171,2.247-4.997,3.369-8.479,3.369c-2.827,0-5.231-0.94-7.213-2.82
			c-1.981-1.88-2.972-4.404-2.972-7.572c0-3.167,1.009-5.685,3.028-7.553c2.02-1.868,4.398-2.802,7.137-2.802
			s5.066,0.827,6.985,2.48c1.918,1.653,2.877,3.931,2.877,6.833V174.161z M498.111,170.83h11.547c0-1.691-0.53-2.991-1.59-3.899
			c-1.061-0.909-2.366-1.363-3.919-1.363c-1.552,0-2.946,0.474-4.183,1.42C498.729,167.933,498.111,169.214,498.111,170.83z"/>
		<path fill="#FFFFFF" d="M522.795,171.473v10.903h-4.24v-20.141h4.24v3.672c0.682-1.236,1.621-2.208,2.82-2.915
			c1.199-0.706,2.492-1.06,3.881-1.06c2.271,0,4.107,0.694,5.509,2.083c1.4,1.388,2.101,3.395,2.101,6.02v12.342h-4.24v-11.055
			c0-3.71-1.539-5.565-4.618-5.565c-1.465,0-2.739,0.486-3.824,1.458C523.338,168.186,522.795,169.605,522.795,171.473z
			 M530.821,159.775c-0.657,0-1.571-0.296-2.745-0.89c-1.174-0.593-1.925-0.89-2.252-0.89c-0.833,0-1.263,0.556-1.288,1.666h-2.801
			c0-1.463,0.296-2.65,0.89-3.559c0.593-0.909,1.419-1.363,2.479-1.363c0.682,0,1.628,0.297,2.84,0.89
			c1.211,0.593,2.006,0.89,2.385,0.89c0.757,0,1.136-0.555,1.136-1.666h2.839C534.229,158.134,533.067,159.775,530.821,159.775z"/>
		<path fill="#FFFFFF" d="M559.859,179.669c-2.02,2.007-4.543,3.01-7.572,3.01c-3.028,0-5.553-1.003-7.571-3.01
			c-2.02-2.006-3.029-4.461-3.029-7.363s1.01-5.357,3.029-7.364c2.019-2.006,4.543-3.01,7.571-3.01c3.029,0,5.553,1.003,7.572,3.01
			c2.019,2.006,3.028,4.461,3.028,7.364S561.878,177.663,559.859,179.669z M547.726,177.057c1.198,1.225,2.719,1.836,4.562,1.836
			c1.842,0,3.363-0.612,4.563-1.836c1.198-1.224,1.798-2.807,1.798-4.751c0-1.943-0.6-3.527-1.798-4.751
			c-1.199-1.224-2.721-1.836-4.563-1.836c-1.843,0-3.363,0.612-4.562,1.836c-1.199,1.225-1.799,2.808-1.799,4.751
			C545.927,174.25,546.526,175.833,547.726,177.057z"/>
		<path fill="#FFFFFF" d="M424.749,214.117c-1.095,0-2.083-0.397-2.968-1.191l1.146-2.046c0.524,0.495,1.068,0.742,1.63,0.742
			s1.019-0.202,1.371-0.607c0.353-0.404,0.528-0.847,0.528-1.326c0-0.21-1.611-4.309-4.833-12.296h2.697l3.574,8.812l3.574-8.812
			h2.697l-5.799,14.207c-0.346,0.779-0.84,1.394-1.484,1.843C426.239,213.892,425.527,214.117,424.749,214.117z"/>
		<path fill="#FFFFFF" d="M448.711,197.212c1.604,0,2.975,0.555,4.113,1.664c1.139,1.109,1.708,2.585,1.708,4.428
			s-0.565,3.342-1.696,4.496c-1.132,1.154-2.45,1.731-3.957,1.731c-1.506,0-2.858-0.659-4.057-1.978v6.16h-2.519v-16.32h2.519v2.09
			C445.811,197.969,447.106,197.212,448.711,197.212z M444.776,203.394c0,1.139,0.345,2.072,1.034,2.799
			c0.689,0.727,1.529,1.09,2.518,1.09c0.989,0,1.851-0.36,2.585-1.079s1.102-1.652,1.102-2.799c0-1.146-0.359-2.098-1.079-2.854
			c-0.719-0.757-1.581-1.135-2.585-1.135s-1.851,0.378-2.54,1.135S444.776,202.255,444.776,203.394z"/>
		<path fill="#FFFFFF" d="M463.682,199.752c-1.244,0-2.181,0.405-2.811,1.214c-0.629,0.81-0.943,1.896-0.943,3.26v5.125h-2.519
			v-11.958h2.519v2.405c0.404-0.75,0.955-1.364,1.651-1.843c0.697-0.479,1.436-0.727,2.215-0.742l0.022,2.54
			C463.771,199.752,463.727,199.752,463.682,199.752z"/>
		<path fill="#FFFFFF" d="M476.112,207.744c-1.199,1.191-2.698,1.787-4.496,1.787c-1.799,0-3.297-0.596-4.496-1.787
			s-1.798-2.648-1.798-4.372c0-1.723,0.599-3.181,1.798-4.372s2.697-1.787,4.496-1.787c1.798,0,3.297,0.596,4.496,1.787
			c1.198,1.191,1.798,2.649,1.798,4.372C477.91,205.095,477.311,206.552,476.112,207.744z M468.907,206.193
			c0.712,0.727,1.615,1.09,2.709,1.09s1.997-0.363,2.709-1.09c0.711-0.727,1.067-1.667,1.067-2.821c0-1.154-0.356-2.094-1.067-2.821
			c-0.712-0.727-1.615-1.09-2.709-1.09s-1.997,0.363-2.709,1.09s-1.067,1.667-1.067,2.821
			C467.84,204.526,468.195,205.466,468.907,206.193z"/>
		<path fill="#FFFFFF" d="M483.688,199.416v6.069c0,0.569,0.149,1.022,0.449,1.36c0.3,0.337,0.72,0.506,1.259,0.506
			c0.54,0,1.057-0.262,1.552-0.787l1.033,1.776c-0.884,0.794-1.861,1.191-2.933,1.191c-1.072,0-1.986-0.371-2.743-1.113
			c-0.757-0.742-1.135-1.742-1.135-3v-6.002h-1.506v-2.023h1.506v-3.754h2.518v3.754h3.147v2.023H483.688z"/>
		<path fill="#FFFFFF" d="M499.895,207.744c-1.199,1.191-2.698,1.787-4.496,1.787c-1.799,0-3.297-0.596-4.496-1.787
			s-1.798-2.648-1.798-4.372c0-1.723,0.599-3.181,1.798-4.372s2.697-1.787,4.496-1.787c1.798,0,3.297,0.596,4.496,1.787
			c1.198,1.191,1.798,2.649,1.798,4.372C501.692,205.095,501.093,206.552,499.895,207.744z M492.689,206.193
			c0.712,0.727,1.615,1.09,2.709,1.09s1.997-0.363,2.709-1.09c0.711-0.727,1.067-1.667,1.067-2.821c0-1.154-0.356-2.094-1.067-2.821
			c-0.712-0.727-1.615-1.09-2.709-1.09s-1.997,0.363-2.709,1.09s-1.067,1.667-1.067,2.821
			C491.622,204.526,491.978,205.466,492.689,206.193z"/>
		<path fill="#FFFFFF" d="M507.47,199.416v6.069c0,0.569,0.149,1.022,0.449,1.36c0.3,0.337,0.72,0.506,1.259,0.506
			c0.54,0,1.057-0.262,1.552-0.787l1.033,1.776c-0.884,0.794-1.861,1.191-2.933,1.191c-1.072,0-1.986-0.371-2.743-1.113
			c-0.757-0.742-1.135-1.742-1.135-3v-6.002h-1.506v-2.023h1.506v-3.754h2.518v3.754h3.147v2.023H507.47z"/>
		<path fill="#FFFFFF" d="M513.921,195.01c-0.315-0.315-0.473-0.689-0.473-1.124s0.157-0.809,0.473-1.124
			c0.314-0.314,0.688-0.472,1.124-0.472c0.434,0,0.809,0.158,1.123,0.472c0.315,0.315,0.473,0.689,0.473,1.124
			s-0.157,0.809-0.473,1.124c-0.314,0.314-0.689,0.472-1.123,0.472C514.609,195.482,514.235,195.324,513.921,195.01z
			 M516.281,209.351h-2.519v-11.958h2.519V209.351z"/>
		<path fill="#FFFFFF" d="M526.329,197.212c1.604,0,2.975,0.555,4.113,1.664c1.139,1.109,1.708,2.585,1.708,4.428
			s-0.565,3.342-1.696,4.496c-1.132,1.154-2.45,1.731-3.957,1.731c-1.506,0-2.858-0.659-4.057-1.978v6.16h-2.519v-16.32h2.519v2.09
			C523.429,197.969,524.725,197.212,526.329,197.212z M522.395,203.394c0,1.139,0.345,2.072,1.034,2.799
			c0.689,0.727,1.529,1.09,2.518,1.09c0.989,0,1.851-0.36,2.585-1.079s1.102-1.652,1.102-2.799c0-1.146-0.359-2.098-1.079-2.854
			c-0.719-0.757-1.581-1.135-2.585-1.135s-1.851,0.378-2.54,1.135S522.395,202.255,522.395,203.394z"/>
		<path fill="#FFFFFF" d="M544.716,209.351h-2.293v-1.596c-0.988,1.184-2.314,1.776-3.979,1.776c-1.244,0-2.274-0.352-3.091-1.056
			s-1.225-1.645-1.225-2.821c0-1.176,0.435-2.057,1.304-2.641s2.045-0.877,3.529-0.877h3.259v-0.449
			c0-1.588-0.884-2.383-2.652-2.383c-1.109,0-2.263,0.404-3.462,1.214l-1.124-1.574c1.454-1.154,3.103-1.731,4.945-1.731
			c1.409,0,2.56,0.356,3.451,1.068c0.892,0.712,1.337,1.832,1.337,3.361V209.351z M542.198,204.9v-1.012h-2.832
			c-1.813,0-2.72,0.57-2.72,1.708c0,0.584,0.225,1.03,0.674,1.337c0.45,0.307,1.075,0.461,1.877,0.461s1.503-0.225,2.103-0.674
			C541.898,206.271,542.198,205.665,542.198,204.9z"/>
		<path fill="#FFFFFF" d="M549.145,207.823c-1.124-1.139-1.686-2.638-1.686-4.496c0-1.858,0.576-3.341,1.73-4.451
			c1.154-1.109,2.529-1.664,4.125-1.664s2.881,0.674,3.855,2.023v-6.564h2.518v16.679h-2.518v-1.798
			c-0.93,1.319-2.286,1.978-4.069,1.978C551.587,209.531,550.269,208.961,549.145,207.823z M549.977,203.428
			c0,1.146,0.367,2.08,1.102,2.799c0.733,0.719,1.596,1.079,2.585,1.079s1.828-0.363,2.518-1.09c0.689-0.727,1.034-1.66,1.034-2.799
			c0-1.139-0.345-2.09-1.034-2.854s-1.536-1.146-2.54-1.146s-1.866,0.382-2.585,1.146
			C550.336,201.326,549.977,202.282,549.977,203.428z"/>
		<path fill="#FFFFFF" d="M573.332,207.744c-1.199,1.191-2.698,1.787-4.496,1.787c-1.799,0-3.297-0.596-4.496-1.787
			s-1.798-2.648-1.798-4.372c0-1.723,0.599-3.181,1.798-4.372s2.697-1.787,4.496-1.787c1.798,0,3.297,0.596,4.496,1.787
			c1.198,1.191,1.798,2.649,1.798,4.372C575.13,205.095,574.53,206.552,573.332,207.744z M566.127,206.193
			c0.712,0.727,1.615,1.09,2.709,1.09s1.997-0.363,2.709-1.09c0.711-0.727,1.067-1.667,1.067-2.821c0-1.154-0.356-2.094-1.067-2.821
			c-0.712-0.727-1.615-1.09-2.709-1.09s-1.997,0.363-2.709,1.09s-1.067,1.667-1.067,2.821
			C565.06,204.526,565.415,205.466,566.127,206.193z"/>
	</g>
</g>
<g>
	<polygon fill="#8A8BFF" points="445.063,456.021 391.336,364.814 445.063,273.613 552.525,273.613 606.248,364.814 
		552.525,456.021 	"/>
	<g>
		<path fill="#FFFFFF" d="M436.761,345.376c2.154,1.952,3.232,4.667,3.232,8.145s-1.046,6.229-3.137,8.256
			c-2.09,2.027-5.291,3.04-9.6,3.04h-7.424v-22.368h7.68C431.523,342.449,434.606,343.425,436.761,345.376z M436.185,353.617
			c0-5.12-2.934-7.68-8.8-7.68h-3.776v15.328h4.192c2.709,0,4.784-0.646,6.224-1.937
			C435.465,358.039,436.185,356.134,436.185,353.617z"/>
		<path fill="#FFFFFF" d="M460.185,357.873h-13.344c0.085,1.238,0.65,2.235,1.696,2.992c1.045,0.758,2.239,1.136,3.584,1.136
			c2.133,0,3.755-0.672,4.864-2.016l2.047,2.24c-1.834,1.898-4.223,2.848-7.168,2.848c-2.389,0-4.421-0.794-6.096-2.384
			c-1.675-1.589-2.512-3.723-2.512-6.4c0-2.677,0.854-4.805,2.561-6.384c1.706-1.578,3.717-2.368,6.031-2.368
			s4.283,0.699,5.904,2.097s2.432,3.322,2.432,5.775V357.873z M446.841,355.057h9.76c0-1.43-0.447-2.528-1.344-3.296
			c-0.896-0.769-2-1.152-3.313-1.152c-1.312,0-2.49,0.4-3.535,1.2C447.363,352.609,446.841,353.692,446.841,355.057z"/>
		<path fill="#FFFFFF" d="M476.249,359.729c0,1.621-0.588,2.917-1.76,3.888c-1.174,0.972-2.678,1.456-4.512,1.456
			c-1.238,0-2.523-0.224-3.857-0.672c-1.333-0.448-2.512-1.077-3.535-1.888l1.729-2.784c1.983,1.493,3.903,2.24,5.76,2.24
			c0.811,0,1.45-0.187,1.92-0.561c0.469-0.373,0.703-0.848,0.703-1.424c0-0.853-1.131-1.621-3.392-2.304
			c-0.171-0.064-0.299-0.106-0.384-0.128c-3.541-0.96-5.313-2.561-5.313-4.801c0-1.578,0.613-2.842,1.84-3.792
			c1.227-0.948,2.822-1.424,4.785-1.424c1.962,0,3.818,0.576,5.567,1.729l-1.344,2.655c-1.388-0.917-2.892-1.376-4.513-1.376
			c-0.854,0-1.547,0.155-2.08,0.465s-0.799,0.773-0.799,1.392c0,0.555,0.276,0.96,0.832,1.216c0.383,0.192,0.922,0.374,1.615,0.544
			c0.693,0.171,1.307,0.342,1.84,0.513s1.051,0.362,1.553,0.575c0.5,0.214,1.039,0.513,1.615,0.896
			C475.673,356.913,476.249,358.108,476.249,359.729z"/>
		<path fill="#FFFFFF" d="M494.104,364.817h-3.264v-2.272c-1.408,1.686-3.296,2.528-5.664,2.528c-1.771,0-3.238-0.501-4.4-1.504
			s-1.744-2.341-1.744-4.016s0.619-2.929,1.856-3.761s2.912-1.248,5.024-1.248h4.64v-0.64c0-2.261-1.259-3.392-3.776-3.392
			c-1.578,0-3.221,0.576-4.928,1.728l-1.6-2.24c2.068-1.643,4.416-2.464,7.039-2.464c2.006,0,3.643,0.507,4.912,1.521
			s1.904,2.607,1.904,4.784V364.817z M490.521,358.481v-1.44h-4.031c-2.582,0-3.873,0.812-3.873,2.433
			c0,0.832,0.32,1.467,0.961,1.903c0.64,0.438,1.53,0.656,2.672,0.656c1.141,0,2.139-0.319,2.992-0.96
			C490.094,360.433,490.521,359.569,490.521,358.481z"/>
		<path fill="#FFFFFF" d="M508.024,351.153c-1.771,0-3.104,0.576-4,1.729c-0.896,1.151-1.344,2.698-1.344,4.64v7.296h-3.584v-17.024
			h3.584v3.425c0.576-1.066,1.359-1.941,2.352-2.624s2.043-1.035,3.152-1.057l0.031,3.616
			C508.152,351.153,508.089,351.153,508.024,351.153z"/>
		<path fill="#FFFFFF" d="M520.728,351.153c-1.771,0-3.104,0.576-4,1.729c-0.896,1.151-1.344,2.698-1.344,4.64v7.296H511.8v-17.024
			h3.584v3.425c0.576-1.066,1.36-1.941,2.352-2.624c0.992-0.683,2.043-1.035,3.152-1.057l0.032,3.616
			C520.856,351.153,520.792,351.153,520.728,351.153z"/>
		<path fill="#FFFFFF" d="M538.424,362.529c-1.707,1.696-3.84,2.544-6.399,2.544c-2.561,0-4.694-0.848-6.4-2.544
			c-1.707-1.696-2.561-3.771-2.561-6.224s0.854-4.528,2.561-6.225c1.706-1.695,3.84-2.544,6.4-2.544c2.56,0,4.692,0.849,6.399,2.544
			c1.706,1.696,2.56,3.771,2.56,6.225S540.13,360.833,538.424,362.529z M528.168,360.321c1.013,1.035,2.298,1.552,3.856,1.552
			c1.557,0,2.842-0.517,3.855-1.552c1.013-1.034,1.52-2.373,1.52-4.016s-0.507-2.981-1.52-4.017
			c-1.014-1.034-2.299-1.552-3.855-1.552c-1.559,0-2.844,0.518-3.856,1.552c-1.014,1.035-1.521,2.374-1.521,4.017
			S527.154,359.287,528.168,360.321z"/>
		<path fill="#FFFFFF" d="M548.632,364.817h-3.584v-23.744h3.584V364.817z"/>
		<path fill="#FFFFFF" d="M557.399,364.817h-3.584v-23.744h3.584V364.817z"/>
		<path fill="#FFFFFF" d="M576.823,362.529c-1.707,1.696-3.84,2.544-6.4,2.544s-4.693-0.848-6.4-2.544s-2.56-3.771-2.56-6.224
			s0.853-4.528,2.56-6.225c1.707-1.695,3.84-2.544,6.4-2.544s4.693,0.849,6.4,2.544c1.706,1.696,2.56,3.771,2.56,6.225
			S578.529,360.833,576.823,362.529z M566.567,360.321c1.012,1.035,2.298,1.552,3.855,1.552c1.557,0,2.842-0.517,3.855-1.552
			c1.014-1.034,1.521-2.373,1.521-4.016s-0.507-2.981-1.521-4.017c-1.014-1.034-2.299-1.552-3.855-1.552
			c-1.558,0-2.844,0.518-3.855,1.552c-1.014,1.035-1.521,2.374-1.521,4.017S565.554,359.287,566.567,360.321z"/>
		<path fill="#FFFFFF" d="M491.524,387.617h-1.938v-1.349c-0.836,1-1.957,1.501-3.363,1.501c-1.051,0-1.922-0.298-2.612-0.894
			c-0.69-0.595-1.036-1.39-1.036-2.385c0-0.994,0.367-1.738,1.103-2.232c0.734-0.493,1.729-0.74,2.983-0.74h2.755v-0.38
			c0-1.343-0.747-2.015-2.242-2.015c-0.938,0-1.913,0.342-2.926,1.026l-0.95-1.33c1.229-0.976,2.622-1.463,4.18-1.463
			c1.191,0,2.163,0.301,2.917,0.902c0.753,0.602,1.13,1.549,1.13,2.841V387.617z M489.397,383.855V383h-2.395
			c-1.533,0-2.299,0.481-2.299,1.444c0,0.494,0.189,0.871,0.57,1.13c0.379,0.26,0.908,0.39,1.586,0.39s1.27-0.189,1.776-0.569
			S489.397,384.5,489.397,383.855z M488.466,376.216h-1.938l2.014-2.755l2.242,0.932L488.466,376.216z"/>
		<path fill="#FFFFFF" d="M503.837,377.508v8.816c0,1.786-0.484,3.126-1.453,4.019c-0.97,0.893-2.214,1.34-3.734,1.34
			c-1.52,0-2.895-0.476-4.123-1.426l1.008-1.614c0.987,0.747,1.984,1.121,2.992,1.121c1.007,0,1.805-0.26,2.395-0.779
			c0.588-0.52,0.883-1.35,0.883-2.489v-1.292c-0.316,0.596-0.77,1.07-1.358,1.425c-0.589,0.355-1.251,0.532-1.985,0.532
			c-1.344,0-2.445-0.469-3.307-1.406c-0.861-0.937-1.291-2.103-1.291-3.496c0-1.393,0.43-2.558,1.291-3.495s1.961-1.406,3.297-1.406
			s2.422,0.551,3.258,1.652v-1.501H503.837z M495.952,382.173c0,0.83,0.256,1.545,0.77,2.146c0.513,0.603,1.203,0.903,2.07,0.903
			s1.57-0.292,2.109-0.874c0.538-0.583,0.807-1.309,0.807-2.176s-0.271-1.603-0.816-2.204s-1.248-0.902-2.109-0.902
			s-1.548,0.311-2.061,0.931C496.208,380.619,495.952,381.343,495.952,382.173z"/>
		<path fill="#FFFFFF" d="M507.048,375.495c-0.267-0.266-0.399-0.582-0.399-0.95c0-0.367,0.133-0.684,0.399-0.95
			c0.266-0.266,0.582-0.398,0.949-0.398s0.685,0.133,0.95,0.398c0.267,0.267,0.399,0.583,0.399,0.95c0,0.368-0.133,0.685-0.399,0.95
			c-0.266,0.266-0.583,0.399-0.95,0.399S507.313,375.76,507.048,375.495z M509.042,387.617h-2.127v-10.108h2.127V387.617z"/>
		<path fill="#FFFFFF" d="M514.248,387.617h-2.128v-14.098h2.128V387.617z"/>
	</g>
</g>
<g>
	<polygon fill="#7519FF" points="283.894,547.225 230.167,456.019 283.894,364.816 391.356,364.816 445.079,456.019 
		391.356,547.225 	"/>
	<g>
		<path fill="#FFFFFF" d="M289.638,432.11v3.819h-12.833v6.365h11.526v3.613h-11.526v6.434h13.247v3.819h-17.307V432.11H289.638z"/>
		<path fill="#FFFFFF" d="M298.55,446.251v9.909h-3.854v-18.305h3.854v3.337c0.619-1.123,1.473-2.006,2.563-2.648
			c1.089-0.643,2.265-0.964,3.526-0.964c2.064,0,3.733,0.631,5.006,1.893s1.91,3.085,1.91,5.471v11.217h-3.854v-10.047
			c0-3.372-1.399-5.059-4.198-5.059c-1.33,0-2.489,0.443-3.475,1.325C299.042,443.264,298.55,444.554,298.55,446.251z"/>
		<path fill="#FFFFFF" d="M321.431,440.953v9.29c0,0.871,0.229,1.565,0.688,2.081c0.458,0.517,1.101,0.774,1.927,0.774
			c0.826,0,1.617-0.401,2.374-1.204l1.583,2.718c-1.354,1.217-2.85,1.823-4.49,1.823c-1.64,0-3.04-0.566-4.197-1.702
			c-1.159-1.136-1.738-2.667-1.738-4.594v-9.187h-2.305v-3.097h2.305v-5.746h3.854v5.746h4.816v3.097H321.431z"/>
		<path fill="#FFFFFF" d="M340.664,441.469c-1.904,0-3.338,0.618-4.301,1.857c-0.963,1.238-1.445,2.902-1.445,4.989v7.845h-3.853
			v-18.305h3.853v3.681c0.62-1.146,1.462-2.086,2.529-2.82c1.066-0.734,2.197-1.112,3.389-1.136l0.034,3.889
			C340.802,441.469,340.732,441.469,340.664,441.469z"/>
		<path fill="#FFFFFF" d="M361.754,448.694h-14.347c0.091,1.331,0.699,2.403,1.823,3.218c1.124,0.813,2.408,1.221,3.854,1.221
			c2.294,0,4.037-0.722,5.229-2.168l2.203,2.409c-1.975,2.042-4.542,3.062-7.708,3.062c-2.568,0-4.754-0.854-6.555-2.563
			s-2.7-4.003-2.7-6.882s0.917-5.166,2.752-6.864c1.835-1.697,3.997-2.546,6.485-2.546c2.489,0,4.604,0.752,6.349,2.254
			c1.743,1.502,2.614,3.573,2.614,6.21V448.694z M347.407,445.667h10.494c0-1.537-0.482-2.718-1.445-3.544s-2.15-1.238-3.562-1.238
			c-1.41,0-2.679,0.43-3.802,1.29C347.969,443.034,347.407,444.199,347.407,445.667z"/>
		<path fill="#FFFFFF" d="M382.914,437.856v15.965c0,3.233-0.877,5.659-2.632,7.276c-1.755,1.618-4.008,2.426-6.761,2.426
			c-2.752,0-5.241-0.859-7.467-2.58l1.824-2.925c1.789,1.354,3.595,2.03,5.419,2.03c1.823,0,3.269-0.47,4.335-1.411
			c1.067-0.94,1.601-2.442,1.601-4.507v-2.34c-0.574,1.079-1.395,1.938-2.46,2.581c-1.067,0.643-2.267,0.963-3.596,0.963
			c-2.433,0-4.428-0.849-5.987-2.546s-2.339-3.807-2.339-6.33c0-2.524,0.779-4.634,2.339-6.332c1.56-1.697,3.55-2.546,5.97-2.546
			s4.387,0.997,5.9,2.993v-2.718H382.914z M368.636,446.303c0,1.502,0.464,2.798,1.394,3.888c0.929,1.089,2.179,1.635,3.75,1.635
			c1.57,0,2.844-0.528,3.819-1.583c0.975-1.056,1.462-2.369,1.462-3.939c0-1.571-0.493-2.902-1.479-3.991
			c-0.986-1.09-2.26-1.635-3.818-1.635c-1.561,0-2.805,0.563-3.733,1.687C369.1,443.487,368.636,444.8,368.636,446.303z"/>
		<path fill="#FFFFFF" d="M403.316,456.161h-3.509v-2.443c-1.514,1.813-3.544,2.718-6.09,2.718c-1.904,0-3.481-0.538-4.731-1.616
			c-1.25-1.079-1.875-2.518-1.875-4.318c0-1.8,0.665-3.148,1.995-4.042c1.33-0.896,3.132-1.343,5.402-1.343h4.988v-0.688
			c0-2.432-1.353-3.647-4.06-3.647c-1.697,0-3.463,0.619-5.299,1.857l-1.72-2.408c2.225-1.767,4.748-2.649,7.569-2.649
			c2.156,0,3.917,0.545,5.281,1.635c1.364,1.089,2.047,2.804,2.047,5.144V456.161z M399.463,449.348v-1.549h-4.335
			c-2.775,0-4.163,0.872-4.163,2.615c0,0.895,0.345,1.577,1.032,2.047c0.688,0.471,1.646,0.705,2.873,0.705
			c1.227,0,2.299-0.344,3.217-1.032C399.004,451.447,399.463,450.517,399.463,449.348z"/>
		<path fill="#FFFFFF" d="M276.458,479.287c-1.021-1.035-1.532-2.397-1.532-4.087c0-1.688,0.524-3.036,1.573-4.044
			c1.049-1.008,2.299-1.513,3.749-1.513c1.451,0,2.618,0.613,3.503,1.839v-5.965h2.288v15.158h-2.288v-1.635
			c-0.845,1.199-2.077,1.798-3.697,1.798C278.678,480.838,277.479,480.322,276.458,479.287z M277.214,475.292
			c0,1.042,0.333,1.89,1.001,2.544c0.667,0.652,1.451,0.98,2.349,0.98c0.899,0,1.662-0.33,2.289-0.991
			c0.625-0.661,0.939-1.508,0.939-2.544c0-1.034-0.314-1.899-0.939-2.595c-0.627-0.694-1.396-1.041-2.309-1.041
			c-0.913,0-1.696,0.347-2.35,1.041C277.541,473.382,277.214,474.25,277.214,475.292z"/>
		<path fill="#FFFFFF" d="M299.462,476.243h-8.519c0.054,0.79,0.415,1.427,1.083,1.91c0.667,0.483,1.43,0.725,2.288,0.725
			c1.361,0,2.397-0.429,3.105-1.287l1.308,1.431c-1.171,1.212-2.697,1.817-4.576,1.817c-1.525,0-2.823-0.507-3.892-1.521
			c-1.069-1.015-1.604-2.377-1.604-4.086s0.544-3.067,1.634-4.075s2.373-1.513,3.851-1.513c1.478,0,2.734,0.446,3.769,1.339
			c1.035,0.892,1.553,2.121,1.553,3.688V476.243z M290.943,474.445h6.23c0-0.913-0.286-1.614-0.858-2.104s-1.277-0.735-2.114-0.735
			c-0.838,0-1.59,0.255-2.257,0.766C291.276,472.881,290.943,473.573,290.943,474.445z"/>
		<path fill="#FFFFFF" d="M313.394,469.643c1.457,0,2.703,0.505,3.738,1.513s1.553,2.349,1.553,4.024s-0.514,3.037-1.542,4.086
			c-1.028,1.048-2.227,1.572-3.596,1.572c-1.368,0-2.598-0.599-3.687-1.798v5.598h-2.288v-14.831h2.288v1.899
			C310.758,470.332,311.936,469.643,313.394,469.643z M309.818,475.262c0,1.034,0.313,1.883,0.94,2.543
			c0.626,0.66,1.389,0.99,2.288,0.99s1.682-0.326,2.349-0.98c0.667-0.653,1.001-1.501,1.001-2.543s-0.327-1.907-0.98-2.595
			s-1.437-1.031-2.349-1.031c-0.913,0-1.683,0.344-2.309,1.031C310.132,473.365,309.818,474.227,309.818,475.262z"/>
		<path fill="#FFFFFF" d="M326.999,471.952c-1.13,0-1.981,0.368-2.553,1.104c-0.572,0.734-0.858,1.722-0.858,2.961v4.658h-2.288
			v-10.868h2.288v2.186c0.368-0.681,0.869-1.239,1.502-1.675c0.633-0.437,1.304-0.66,2.012-0.675l0.021,2.309
			C327.081,471.952,327.04,471.952,326.999,471.952z"/>
		<path fill="#FFFFFF" d="M338.296,479.215c-1.089,1.082-2.451,1.623-4.085,1.623s-2.997-0.541-4.086-1.623
			c-1.089-1.084-1.634-2.408-1.634-3.975c0-1.565,0.545-2.89,1.634-3.973s2.452-1.625,4.086-1.625s2.996,0.542,4.085,1.625
			c1.09,1.083,1.635,2.407,1.635,3.973C339.931,476.807,339.386,478.131,338.296,479.215z M331.749,477.805
			c0.647,0.66,1.468,0.99,2.462,0.99s1.815-0.33,2.462-0.99c0.646-0.66,0.97-1.515,0.97-2.564c0-1.049-0.324-1.903-0.97-2.563
			c-0.647-0.66-1.468-0.99-2.462-0.99s-1.815,0.33-2.462,0.99c-0.646,0.66-0.97,1.515-0.97,2.563
			C330.778,476.291,331.102,477.145,331.749,477.805z"/>
		<path fill="#FFFFFF" d="M343.363,479.287c-1.021-1.035-1.532-2.397-1.532-4.087c0-1.688,0.523-3.036,1.573-4.044
			c1.048-1.008,2.297-1.513,3.748-1.513c1.45,0,2.618,0.613,3.504,1.839v-5.965h2.287v15.158h-2.287v-1.635
			c-0.845,1.199-2.077,1.798-3.698,1.798C345.583,480.838,344.385,480.322,343.363,479.287z M344.119,475.292
			c0,1.042,0.333,1.89,1,2.544c0.668,0.652,1.45,0.98,2.35,0.98c0.898,0,1.662-0.33,2.288-0.991s0.94-1.508,0.94-2.544
			c0-1.034-0.314-1.899-0.94-2.595c-0.626-0.694-1.396-1.041-2.309-1.041c-0.912,0-1.695,0.347-2.349,1.041
			C344.445,473.382,344.119,474.25,344.119,475.292z"/>
		<path fill="#FFFFFF" d="M363.853,475.691v-5.884h2.288v10.868h-2.288v-1.982c-0.367,0.668-0.875,1.192-1.522,1.574
			c-0.646,0.381-1.345,0.571-2.093,0.571c-1.226,0-2.218-0.374-2.973-1.124c-0.756-0.748-1.134-1.831-1.134-3.247v-6.66h2.287v5.966
			c0,2.002,0.831,3.003,2.493,3.003c0.79,0,1.478-0.262,2.063-0.787C363.56,477.465,363.853,476.699,363.853,475.691z"/>
		<path fill="#FFFFFF" d="M374.271,480.838c-1.512,0-2.813-0.514-3.901-1.542c-1.091-1.028-1.635-2.373-1.635-4.034
			c0-1.662,0.568-3.014,1.706-4.056c1.137-1.042,2.522-1.563,4.157-1.563c1.634,0,3.017,0.566,4.146,1.696l-1.348,1.654
			c-0.94-0.816-1.887-1.225-2.84-1.225c-0.954,0-1.781,0.316-2.482,0.949s-1.052,1.45-1.052,2.452c0,1,0.347,1.849,1.042,2.542
			c0.694,0.695,1.549,1.043,2.563,1.043s1.972-0.463,2.871-1.389l1.348,1.47C377.526,480.172,376,480.838,374.271,480.838z"/>
		<path fill="#FFFFFF" d="M384.036,471.646v5.516c0,0.518,0.136,0.93,0.409,1.236c0.272,0.307,0.653,0.46,1.144,0.46
			s0.96-0.239,1.41-0.716l0.939,1.614c-0.804,0.722-1.692,1.082-2.666,1.082c-0.975,0-1.805-0.336-2.492-1.011
			c-0.688-0.675-1.032-1.583-1.032-2.728v-5.454h-1.368v-1.839h1.368v-3.411h2.288v3.411h2.86v1.839H384.036z"/>
		<path fill="#FFFFFF" d="M398.765,479.215c-1.09,1.082-2.451,1.623-4.086,1.623c-1.634,0-2.996-0.541-4.085-1.623
			c-1.091-1.084-1.635-2.408-1.635-3.975c0-1.565,0.544-2.89,1.635-3.973c1.089-1.083,2.451-1.625,4.085-1.625
			c1.635,0,2.996,0.542,4.086,1.625s1.635,2.407,1.635,3.973C400.399,476.807,399.854,478.131,398.765,479.215z M392.217,477.805
			c0.647,0.66,1.468,0.99,2.462,0.99s1.814-0.33,2.462-0.99s0.971-1.515,0.971-2.564c0-1.049-0.323-1.903-0.971-2.563
			s-1.468-0.99-2.462-0.99s-1.814,0.33-2.462,0.99c-0.646,0.66-0.97,1.515-0.97,2.563
			C391.247,476.291,391.57,477.145,392.217,477.805z"/>
	</g>
</g>
<g>
	<polygon fill="#546E7A" points="123.726,456.021 70,364.815 123.726,273.612 231.188,273.612 284.911,364.815 231.188,456.021 	"/>
	<g>
		<path fill="#FFFFFF" d="M98.94,348.428c-0.927,0-1.688,0.188-2.282,0.566c-0.594,0.377-0.891,0.949-0.891,1.715
			s0.297,1.35,0.891,1.754c0.594,0.406,1.858,0.842,3.793,1.311c1.935,0.467,3.393,1.125,4.374,1.971s1.472,2.092,1.472,3.74
			c0,1.646-0.621,2.982-1.863,4.008c-1.242,1.027-2.872,1.539-4.887,1.539c-2.952,0-5.571-1.016-7.857-3.051l1.998-2.402
			c1.908,1.656,3.888,2.484,5.94,2.484c1.026,0,1.84-0.221,2.443-0.662s0.905-1.025,0.905-1.756c0-0.729-0.284-1.295-0.851-1.699
			c-0.567-0.406-1.544-0.775-2.93-1.107c-1.386-0.334-2.439-0.639-3.159-0.918s-1.359-0.645-1.917-1.094
			c-1.116-0.846-1.674-2.143-1.674-3.889s0.635-3.092,1.903-4.035c1.269-0.945,2.839-1.418,4.712-1.418
			c1.206,0,2.403,0.197,3.591,0.594s2.214,0.953,3.078,1.674l-1.701,2.402c-0.558-0.504-1.314-0.918-2.268-1.242
			C100.807,348.59,99.867,348.428,98.94,348.428z"/>
		<path fill="#FFFFFF" d="M123.172,358.958h-11.259c0.072,1.045,0.549,1.885,1.431,2.523c0.882,0.641,1.89,0.959,3.024,0.959
			c1.8,0,3.168-0.566,4.104-1.701l1.728,1.891c-1.548,1.602-3.564,2.402-6.048,2.402c-2.017,0-3.731-0.67-5.144-2.012
			c-1.414-1.34-2.12-3.141-2.12-5.398c0-2.26,0.72-4.055,2.16-5.387c1.439-1.332,3.136-1.998,5.089-1.998
			c1.953,0,3.613,0.59,4.981,1.768c1.368,1.18,2.052,2.805,2.052,4.873V358.958z M111.913,356.581h8.235
			c0-1.205-0.378-2.133-1.134-2.779c-0.756-0.648-1.688-0.973-2.794-0.973s-2.102,0.338-2.983,1.012
			C112.354,354.516,111.913,355.43,111.913,356.581z"/>
		<path fill="#FFFFFF" d="M139.777,350.452v12.529c0,2.537-0.688,4.441-2.066,5.709c-1.377,1.27-3.146,1.904-5.305,1.904
			c-2.16,0-4.113-0.676-5.859-2.025l1.431-2.295c1.404,1.063,2.822,1.594,4.252,1.594c1.431,0,2.565-0.369,3.402-1.107
			c0.837-0.738,1.255-1.916,1.255-3.537v-1.836c-0.45,0.846-1.094,1.521-1.931,2.025s-1.778,0.756-2.821,0.756
			c-1.908,0-3.474-0.666-4.698-1.998s-1.836-2.988-1.836-4.969c0-1.979,0.612-3.635,1.836-4.967s2.785-1.998,4.685-1.998
			c1.899,0,3.442,0.783,4.63,2.348v-2.133H139.777z M128.572,357.081c0,1.18,0.364,2.197,1.093,3.051
			c0.729,0.855,1.71,1.283,2.943,1.283c1.232,0,2.231-0.414,2.997-1.242s1.147-1.857,1.147-3.092c0-1.232-0.387-2.277-1.161-3.131
			c-0.774-0.855-1.773-1.283-2.997-1.283c-1.224,0-2.201,0.441-2.93,1.322C128.937,354.872,128.572,355.903,128.572,357.081z"/>
		<path fill="#FFFFFF" d="M154.195,358.229v-7.777h3.024v14.365h-3.024v-2.619c-0.486,0.881-1.157,1.574-2.011,2.078
			c-0.855,0.504-1.778,0.756-2.768,0.756c-1.62,0-2.93-0.494-3.929-1.484s-1.499-2.42-1.499-4.293v-8.803h3.024v7.885
			c0,2.646,1.098,3.969,3.294,3.969c1.044,0,1.953-0.346,2.727-1.039S154.195,359.561,154.195,358.229z"/>
		<path fill="#FFFFFF" d="M161.782,347.59c-0.378-0.377-0.567-0.828-0.567-1.35s0.189-0.973,0.567-1.35
			c0.378-0.379,0.828-0.568,1.35-0.568c0.522,0,0.972,0.189,1.35,0.568c0.378,0.377,0.567,0.828,0.567,1.35s-0.189,0.973-0.567,1.35
			c-0.378,0.379-0.828,0.566-1.35,0.566C162.609,348.157,162.16,347.969,161.782,347.59z M164.617,364.817h-3.024v-14.365h3.024
			V364.817z"/>
		<path fill="#FFFFFF" d="M172.014,357.04v7.777h-3.024v-14.365h3.024v2.619c0.432-0.881,1.084-1.574,1.958-2.078
			s1.813-0.756,2.822-0.756c2.268,0,3.807,0.936,4.617,2.807c1.422-1.871,3.195-2.807,5.319-2.807c1.62,0,2.93,0.494,3.929,1.484
			s1.499,2.422,1.499,4.293v8.803h-3.024v-7.885c0-2.646-1.098-3.969-3.294-3.969c-1.026,0-1.922,0.328-2.687,0.986
			c-0.766,0.656-1.166,1.615-1.202,2.875v7.992h-3.024v-7.885c0-1.367-0.243-2.371-0.729-3.01s-1.251-0.959-2.295-0.959
			c-1.044,0-1.954,0.348-2.727,1.039C172.401,354.696,172.014,355.709,172.014,357.04z"/>
		<path fill="#FFFFFF" d="M196.557,347.59c-0.378-0.377-0.567-0.828-0.567-1.35s0.189-0.973,0.567-1.35
			c0.378-0.379,0.828-0.568,1.35-0.568c0.522,0,0.972,0.189,1.35,0.568c0.378,0.377,0.567,0.828,0.567,1.35s-0.189,0.973-0.567,1.35
			c-0.378,0.379-0.828,0.566-1.35,0.566C197.385,348.157,196.935,347.969,196.557,347.59z M199.392,364.817h-3.024v-14.365h3.024
			V364.817z"/>
		<path fill="#FFFFFF" d="M217.13,358.958h-11.259c0.072,1.045,0.549,1.885,1.431,2.523c0.882,0.641,1.89,0.959,3.024,0.959
			c1.8,0,3.168-0.566,4.104-1.701l1.728,1.891c-1.548,1.602-3.564,2.402-6.048,2.402c-2.017,0-3.731-0.67-5.144-2.012
			c-1.414-1.34-2.12-3.141-2.12-5.398c0-2.26,0.72-4.055,2.16-5.387c1.439-1.332,3.136-1.998,5.089-1.998
			c1.953,0,3.613,0.59,4.981,1.768c1.368,1.18,2.052,2.805,2.052,4.873V358.958z M205.872,356.581h8.235
			c0-1.205-0.378-2.133-1.134-2.779c-0.756-0.648-1.688-0.973-2.794-0.973s-2.102,0.338-2.983,1.012
			C206.313,354.516,205.872,355.43,205.872,356.581z"/>
		<path fill="#FFFFFF" d="M223.476,357.04v7.777h-3.024v-14.365h3.024v2.619c0.486-0.881,1.156-1.574,2.012-2.078
			c0.854-0.504,1.777-0.756,2.768-0.756c1.62,0,2.929,0.494,3.928,1.484s1.499,2.422,1.499,4.293v8.803h-3.024v-7.885
			c0-2.646-1.098-3.969-3.294-3.969c-1.044,0-1.954,0.348-2.727,1.039C223.862,354.696,223.476,355.709,223.476,357.04z"/>
		<path fill="#FFFFFF" d="M241.431,352.883v7.289c0,0.684,0.18,1.229,0.54,1.633c0.36,0.406,0.864,0.607,1.512,0.607
			s1.269-0.314,1.863-0.943l1.242,2.133c-1.062,0.953-2.237,1.43-3.523,1.43c-1.287,0-2.385-0.445-3.294-1.336
			c-0.909-0.891-1.363-2.092-1.363-3.604v-7.209h-1.809v-2.432h1.809v-4.508h3.024v4.508h3.78v2.432H241.431z"/>
		<path fill="#FFFFFF" d="M260.898,362.885c-1.44,1.432-3.24,2.146-5.4,2.146c-2.16,0-3.96-0.715-5.4-2.146
			c-1.44-1.43-2.16-3.182-2.16-5.25c0-2.07,0.72-3.822,2.16-5.252c1.44-1.432,3.24-2.146,5.4-2.146c2.16,0,3.96,0.715,5.4,2.146
			c1.44,1.43,2.16,3.182,2.16,5.252C263.058,359.704,262.338,361.456,260.898,362.885z M252.244,361.022
			c0.855,0.875,1.939,1.311,3.253,1.311s2.398-0.436,3.254-1.311c0.854-0.871,1.282-2.002,1.282-3.387
			c0-1.387-0.428-2.516-1.282-3.389c-0.855-0.873-1.94-1.311-3.254-1.311s-2.398,0.438-3.253,1.311s-1.282,2.002-1.282,3.389
			C250.962,359.02,251.389,360.151,252.244,361.022z"/>
		<path fill="#FFFFFF" d="M109.702,391.645c-0.925,0-1.761-0.336-2.508-1.008l0.969-1.729c0.443,0.418,0.902,0.627,1.377,0.627
			s0.861-0.172,1.159-0.514c0.297-0.342,0.446-0.715,0.446-1.121c0-0.178-1.362-3.641-4.085-10.393h2.28l3.021,7.447l3.021-7.447
			h2.28l-4.902,12.008c-0.292,0.658-0.709,1.178-1.254,1.559C110.962,391.454,110.361,391.645,109.702,391.645z"/>
		<path fill="#FFFFFF" d="M132.996,386.258c-1.014,1.006-2.28,1.51-3.8,1.51s-2.787-0.504-3.8-1.51
			c-1.014-1.008-1.52-2.24-1.52-3.695c0-1.457,0.506-2.689,1.52-3.695c1.013-1.008,2.28-1.512,3.8-1.512s2.787,0.504,3.8,1.512
			c1.013,1.006,1.52,2.238,1.52,3.695C134.516,384.018,134.009,385.25,132.996,386.258z M126.906,384.946
			c0.602,0.615,1.365,0.922,2.29,0.922s1.688-0.307,2.29-0.922c0.602-0.613,0.903-1.408,0.903-2.383
			c0-0.977-0.301-1.771-0.903-2.385c-0.602-0.615-1.365-0.922-2.29-0.922s-1.688,0.307-2.29,0.922
			c-0.602,0.613-0.902,1.408-0.902,2.385C126.003,383.538,126.304,384.333,126.906,384.946z"/>
		<path fill="#FFFFFF" d="M142.344,377.356c1.355,0,2.514,0.469,3.477,1.406c0.962,0.938,1.444,2.186,1.444,3.742
			c0,1.559-0.478,2.826-1.435,3.801s-2.071,1.463-3.344,1.463s-2.417-0.557-3.43-1.672v5.205h-2.128v-13.793h2.128v1.768
			C139.893,377.997,140.988,377.356,142.344,377.356z M139.019,382.581c0,0.963,0.292,1.752,0.874,2.365
			c0.583,0.615,1.292,0.922,2.128,0.922s1.564-0.303,2.185-0.912c0.621-0.607,0.931-1.396,0.931-2.365s-0.304-1.773-0.912-2.412
			c-0.608-0.641-1.336-0.961-2.185-0.961s-1.564,0.32-2.147,0.961C139.31,380.817,139.019,381.62,139.019,382.581z"/>
		<path fill="#FFFFFF" d="M152.319,379.217v5.131c0,0.482,0.126,0.865,0.38,1.15c0.253,0.283,0.608,0.426,1.064,0.426
			s0.893-0.221,1.311-0.664l0.874,1.5c-0.748,0.672-1.574,1.008-2.479,1.008c-0.906,0-1.679-0.313-2.318-0.939
			c-0.64-0.627-0.959-1.473-0.959-2.537v-5.074h-1.273v-1.709h1.273v-3.174h2.128v3.174h2.66v1.709H152.319z"/>
		<path fill="#FFFFFF" d="M157.771,375.495c-0.266-0.266-0.399-0.582-0.399-0.951c0-0.367,0.133-0.684,0.399-0.949
			s0.583-0.398,0.95-0.398c0.367,0,0.684,0.133,0.95,0.398c0.266,0.266,0.399,0.582,0.399,0.949c0,0.369-0.133,0.686-0.399,0.951
			c-0.266,0.266-0.583,0.398-0.95,0.398C158.354,375.893,158.038,375.76,157.771,375.495z M159.767,387.616h-2.128v-10.107h2.128
			V387.616z"/>
		<path fill="#FFFFFF" d="M164.972,382.145v5.471h-2.128v-10.107h2.128v1.844c0.304-0.621,0.763-1.109,1.377-1.463
			c0.614-0.355,1.276-0.533,1.985-0.533c1.596,0,2.679,0.658,3.249,1.977c1-1.318,2.249-1.977,3.743-1.977
			c1.14,0,2.062,0.35,2.765,1.045c0.703,0.697,1.054,1.703,1.054,3.021v6.193h-2.128v-5.547c0-1.863-0.772-2.793-2.318-2.793
			c-0.722,0-1.352,0.23-1.891,0.693s-0.82,1.137-0.845,2.023v5.623h-2.128v-5.547c0-0.963-0.171-1.67-0.513-2.119
			c-0.342-0.449-0.88-0.674-1.615-0.674c-0.734,0-1.375,0.244-1.919,0.73C165.245,380.495,164.972,381.208,164.972,382.145z"/>
		<path fill="#FFFFFF" d="M182.243,375.495c-0.266-0.266-0.399-0.582-0.399-0.951c0-0.367,0.133-0.684,0.399-0.949
			s0.583-0.398,0.95-0.398c0.367,0,0.684,0.133,0.95,0.398c0.266,0.266,0.399,0.582,0.399,0.949c0,0.369-0.133,0.686-0.399,0.951
			c-0.266,0.266-0.583,0.398-0.95,0.398C182.826,375.893,182.509,375.76,182.243,375.495z M184.238,387.616h-2.128v-10.107h2.128
			V387.616z"/>
		<path fill="#FFFFFF" d="M186.993,379.37v-1.824h7.904v1.92l-5.681,6.309h5.985v1.842h-8.588v-2.07l5.529-6.176H186.993z"/>
		<path fill="#FFFFFF" d="M205.784,387.616h-1.938v-1.348c-0.836,1-1.957,1.5-3.363,1.5c-1.051,0-1.922-0.297-2.612-0.893
			s-1.036-1.391-1.036-2.385s0.367-1.738,1.102-2.232c0.734-0.494,1.729-0.74,2.983-0.74h2.755v-0.381
			c0-1.342-0.748-2.014-2.242-2.014c-0.938,0-1.913,0.342-2.926,1.025l-0.95-1.33c1.229-0.975,2.622-1.463,4.18-1.463
			c1.19,0,2.163,0.301,2.917,0.902c0.753,0.602,1.13,1.549,1.13,2.842V387.616z M203.656,383.854v-0.855h-2.394
			c-1.533,0-2.299,0.482-2.299,1.445c0,0.494,0.19,0.871,0.57,1.129c0.38,0.26,0.909,0.391,1.586,0.391s1.27-0.189,1.776-0.57
			C203.402,385.014,203.656,384.5,203.656,383.854z"/>
		<path fill="#FFFFFF" d="M213.231,387.768c-1.406,0-2.616-0.479-3.629-1.434c-1.014-0.957-1.52-2.207-1.52-3.754
			c0-1.545,0.529-2.803,1.586-3.771s2.347-1.453,3.867-1.453s2.805,0.525,3.857,1.578l-1.254,1.539
			c-0.874-0.762-1.755-1.141-2.641-1.141c-0.887,0-1.656,0.295-2.309,0.883c-0.652,0.59-0.979,1.35-0.979,2.281
			c0,0.93,0.323,1.719,0.969,2.365c0.646,0.645,1.44,0.969,2.384,0.969c0.943,0,1.833-0.432,2.669-1.293l1.254,1.369
			C216.259,387.147,214.84,387.768,213.231,387.768z"/>
		<path fill="#FFFFFF" d="M219.824,375.495c-0.266-0.266-0.399-0.582-0.399-0.951c0-0.367,0.133-0.684,0.399-0.949
			s0.583-0.398,0.95-0.398c0.367,0,0.684,0.133,0.95,0.398c0.266,0.266,0.399,0.582,0.399,0.949c0,0.369-0.133,0.686-0.399,0.951
			c-0.266,0.266-0.583,0.398-0.95,0.398C220.407,375.893,220.09,375.76,219.824,375.495z M221.819,387.616h-2.128v-10.107h2.128
			V387.616z"/>
		<path fill="#FFFFFF" d="M233.352,386.258c-1.014,1.006-2.28,1.51-3.8,1.51s-2.787-0.504-3.8-1.51
			c-1.014-1.008-1.52-2.24-1.52-3.695c0-1.457,0.506-2.689,1.52-3.695c1.013-1.008,2.28-1.512,3.8-1.512s2.787,0.504,3.8,1.512
			c1.013,1.006,1.52,2.238,1.52,3.695C234.872,384.018,234.365,385.25,233.352,386.258z M227.262,384.946
			c0.602,0.615,1.365,0.922,2.29,0.922s1.688-0.307,2.29-0.922c0.602-0.613,0.903-1.408,0.903-2.383
			c0-0.977-0.301-1.771-0.903-2.385c-0.602-0.615-1.365-0.922-2.29-0.922s-1.688,0.307-2.29,0.922
			c-0.602,0.613-0.902,1.408-0.902,2.385C226.36,383.538,226.661,384.333,227.262,384.946z M230.521,376.215h-1.938l2.014-2.754
			l2.242,0.932L230.521,376.215z"/>
		<path fill="#FFFFFF" d="M239.413,382.145v5.471h-2.128v-10.107h2.128v1.844c0.342-0.621,0.814-1.109,1.416-1.463
			c0.602-0.355,1.25-0.533,1.947-0.533c1.14,0,2.062,0.35,2.765,1.045c0.703,0.697,1.055,1.703,1.055,3.021v6.193h-2.128v-5.547
			c0-1.863-0.773-2.793-2.318-2.793c-0.734,0-1.375,0.244-1.919,0.73C239.685,380.495,239.413,381.208,239.413,382.145z"/>
	</g>
</g>
<g>
	<g>
		<polyline fill="none" stroke="#546E7A" stroke-width="5" stroke-miterlimit="10" points="273.676,264.402 304.546,211.66 
			372.976,211.66 408.572,273.374 372.976,332.62 304.546,332.62 290.352,308.766 		"/>
		<g>
			<polygon fill="#546E7A" points="311.188,311.791 310.065,315.633 291.14,310.083 286.987,329.367 283.074,328.52 
				288.137,305.037 			"/>
		</g>
	</g>
</g>
</svg>
