<?xml version="1.0" encoding="utf-8"?>
<!-- Generator: Adobe Illustrator 16.0.0, SVG Export Plug-In . SVG Version: 6.00 Build 0)  -->
<!DOCTYPE svg PUBLIC "-//W3C//DTD SVG 1.1//EN" "http://www.w3.org/Graphics/SVG/1.1/DTD/svg11.dtd">
<svg version="1.1" id="Capa_1" xmlns="http://www.w3.org/2000/svg" xmlns:xlink="http://www.w3.org/1999/xlink" x="0px" y="0px"
	 width="150px" height="150px" viewBox="-50 -50 150 150" enable-background="new -50 -50 150 150" xml:space="preserve">
<g>
	<rect x="10.379" y="65.888" fill="#2196F3" width="31.84" height="5.413"/>
	<path fill="#2196F3" d="M55.427,11.255v65.357h44.622V11.255H55.427z M95.599,72.118H59.877V15.751h35.722V72.118z"/>
	<path fill="#2196F3" d="M-50,28.863V76.94h30.822V28.863H-50z M-23.49,72.75h-0.884H-45.26h-0.782V32.956h0.782h20.885h0.884V72.75
		z"/>
	<polygon fill="#2196F3" points="-39.229,-26.126 -39.229,25.865 -34.29,25.865 -34.29,-20.851 86.297,-20.851 86.297,8.257 
		91.828,8.257 91.828,-26.126 	"/>
	<rect x="-15.991" y="51.527" fill="#2196F3" width="68.018" height="5.328"/>
	<circle fill="#2196F3" cx="-34.59" cy="68.187" r="2.247"/>
	<circle fill="#2196F3" cx="77.739" cy="67.718" r="2.129"/>
	<polygon fill="#2196F3" points="-24.018,3.702 -27.016,3.702 -27.016,-14.038 -7.777,-14.038 -7.777,-11.04 -24.018,-11.04 	"/>
</g>
</svg>
